G04 #@! TF.GenerationSoftware,KiCad,Pcbnew,(5.1.4)-1*
G04 #@! TF.CreationDate,2020-02-07T15:18:06-05:00*
G04 #@! TF.ProjectId,ledFlasherCircuit,6c656446-6c61-4736-9865-724369726375,rev?*
G04 #@! TF.SameCoordinates,Original*
G04 #@! TF.FileFunction,Legend,Top*
G04 #@! TF.FilePolarity,Positive*
%FSLAX46Y46*%
G04 Gerber Fmt 4.6, Leading zero omitted, Abs format (unit mm)*
G04 Created by KiCad (PCBNEW (5.1.4)-1) date 2020-02-07 15:18:06*
%MOMM*%
%LPD*%
G04 APERTURE LIST*
%ADD10C,0.050000*%
%ADD11C,0.125000*%
%ADD12C,0.127000*%
%ADD13C,0.152400*%
%ADD14C,0.120000*%
%ADD15C,0.200000*%
%ADD16C,0.150000*%
G04 APERTURE END LIST*
D10*
X112942362Y-58124396D02*
X112828077Y-58124396D01*
X112885220Y-58124396D02*
X112885220Y-57924396D01*
X112866172Y-57952967D01*
X112847124Y-57972015D01*
X112828077Y-57981539D01*
X139810482Y-58144716D02*
X139696197Y-58144716D01*
X139753340Y-58144716D02*
X139753340Y-57944716D01*
X139734292Y-57973287D01*
X139715244Y-57992335D01*
X139696197Y-58001859D01*
D11*
X133259177Y-63992890D02*
X132973462Y-63992890D01*
X133116320Y-63992890D02*
X133116320Y-63492890D01*
X133068700Y-63564319D01*
X133021081Y-63611938D01*
X132973462Y-63635747D01*
X150206057Y-86377910D02*
X149920342Y-86377910D01*
X150063200Y-86377910D02*
X150063200Y-85877910D01*
X150015580Y-85949339D01*
X149967961Y-85996958D01*
X149920342Y-86020767D01*
X150002857Y-80871190D02*
X149717142Y-80871190D01*
X149860000Y-80871190D02*
X149860000Y-80371190D01*
X149812380Y-80442619D01*
X149764761Y-80490238D01*
X149717142Y-80514047D01*
D12*
X140765000Y-58892000D02*
G75*
G02X141315000Y-58392000I525000J-25000D01*
G01*
X142515000Y-58892000D02*
G75*
G03X142015000Y-58392000I-500000J0D01*
G01*
D13*
X132393001Y-66397000D02*
X134397001Y-66397000D01*
X134397001Y-63143000D02*
X132393001Y-63143000D01*
X132079700Y-41256900D02*
X124325700Y-41256900D01*
X124325700Y-41256900D02*
X124325700Y-44010900D01*
X124325700Y-44010900D02*
X132079700Y-44010900D01*
X132079700Y-44010900D02*
X132079700Y-41256900D01*
D12*
X115630000Y-58897400D02*
G75*
G03X115130000Y-58397400I-500000J0D01*
G01*
X113880000Y-58897400D02*
G75*
G02X114430000Y-58397400I525000J-25000D01*
G01*
D13*
X124325680Y-44099160D02*
X124325680Y-46853160D01*
X132079680Y-44099160D02*
X124325680Y-44099160D01*
X132079680Y-46853160D02*
X132079680Y-44099160D01*
X124325680Y-46853160D02*
X132079680Y-46853160D01*
D14*
X138726758Y-45530724D02*
G75*
G03X143030000Y-45848749I2243242J1080724D01*
G01*
X138726758Y-43369276D02*
G75*
G02X143030000Y-43051251I2243242J-1080724D01*
G01*
X139287287Y-45530961D02*
G75*
G03X142653330Y-45530000I1682713J1080961D01*
G01*
X139287287Y-43369039D02*
G75*
G02X142653330Y-43370000I1682713J-1080961D01*
G01*
X143030000Y-45849000D02*
X143030000Y-45530000D01*
X143030000Y-43370000D02*
X143030000Y-43051000D01*
D13*
X149755650Y-70700900D02*
X148694350Y-70700900D01*
X148694350Y-72555100D02*
X149755650Y-72555100D01*
X148694350Y-69761100D02*
X149755650Y-69761100D01*
X149755650Y-67906900D02*
X148694350Y-67906900D01*
D12*
X150135000Y-84170000D02*
X147335000Y-84170000D01*
D15*
X151635000Y-87170000D02*
G75*
G03X151635000Y-87170000I-100000J0D01*
G01*
D14*
X113326758Y-45530724D02*
G75*
G03X117630000Y-45848749I2243242J1080724D01*
G01*
X113326758Y-43369276D02*
G75*
G02X117630000Y-43051251I2243242J-1080724D01*
G01*
X113887287Y-45530961D02*
G75*
G03X117253330Y-45530000I1682713J1080961D01*
G01*
X113887287Y-43369039D02*
G75*
G02X117253330Y-43370000I1682713J-1080961D01*
G01*
X117630000Y-45849000D02*
X117630000Y-45530000D01*
X117630000Y-43370000D02*
X117630000Y-43051000D01*
D12*
X138560000Y-85605000D02*
X138560000Y-81915000D01*
X134004999Y-85905008D02*
G75*
G03X138560000Y-85605000I2222161J990218D01*
G01*
X122005042Y-85904939D02*
G75*
G02X134005000Y-85905000I5999958J-4201261D01*
G01*
X117450006Y-85605006D02*
G75*
G03X122005000Y-85905000I2332834J690216D01*
G01*
X117450000Y-81915000D02*
X117450000Y-85605000D01*
X117450000Y-73525000D02*
X117450000Y-74295000D01*
X123505000Y-67535000D02*
X117450000Y-73525000D01*
X132505000Y-67535000D02*
X123505000Y-67535000D01*
X138560000Y-73525000D02*
X132505000Y-67535000D01*
X138560000Y-74295000D02*
X138560000Y-73525000D01*
X136006000Y-65037000D02*
X136006000Y-63897000D01*
X137806000Y-65037000D02*
X137806000Y-63897000D01*
X128690000Y-63007500D02*
X128690000Y-61667500D01*
X130390000Y-63007500D02*
X130390000Y-61667500D01*
X122770000Y-63007500D02*
X122770000Y-61667500D01*
X121070000Y-63007500D02*
X121070000Y-61667500D01*
X124880000Y-63007500D02*
X124880000Y-61667500D01*
X126580000Y-63007500D02*
X126580000Y-61667500D01*
D10*
X138930427Y-59367930D02*
X138930427Y-59772692D01*
X138954237Y-59820311D01*
X138978046Y-59844120D01*
X139025665Y-59867930D01*
X139120903Y-59867930D01*
X139168522Y-59844120D01*
X139192332Y-59820311D01*
X139216141Y-59772692D01*
X139216141Y-59367930D01*
X139430427Y-59415549D02*
X139454237Y-59391740D01*
X139501856Y-59367930D01*
X139620903Y-59367930D01*
X139668522Y-59391740D01*
X139692332Y-59415549D01*
X139716141Y-59463168D01*
X139716141Y-59510787D01*
X139692332Y-59582216D01*
X139406618Y-59867930D01*
X139716141Y-59867930D01*
D16*
X132847381Y-65531904D02*
X133656905Y-65531904D01*
X133752143Y-65484285D01*
X133799762Y-65436666D01*
X133847381Y-65341428D01*
X133847381Y-65150952D01*
X133799762Y-65055714D01*
X133752143Y-65008095D01*
X133656905Y-64960476D01*
X132847381Y-64960476D01*
X133847381Y-63960476D02*
X133847381Y-64531904D01*
X133847381Y-64246190D02*
X132847381Y-64246190D01*
X132990239Y-64341428D01*
X133085477Y-64436666D01*
X133133096Y-64531904D01*
X132892800Y-62789820D02*
X132892800Y-63027916D01*
X132654704Y-62932678D02*
X132892800Y-63027916D01*
X133130895Y-62932678D01*
X132749942Y-63218392D02*
X132892800Y-63027916D01*
X133035657Y-63218392D01*
X125576033Y-43086280D02*
X125242700Y-42610090D01*
X125004604Y-43086280D02*
X125004604Y-42086280D01*
X125385557Y-42086280D01*
X125480795Y-42133900D01*
X125528414Y-42181519D01*
X125576033Y-42276757D01*
X125576033Y-42419614D01*
X125528414Y-42514852D01*
X125480795Y-42562471D01*
X125385557Y-42610090D01*
X125004604Y-42610090D01*
X125909366Y-42086280D02*
X126576033Y-42086280D01*
X126147461Y-43086280D01*
X121932700Y-42086280D02*
X121932700Y-42324376D01*
X121694604Y-42229138D02*
X121932700Y-42324376D01*
X122170795Y-42229138D01*
X121789842Y-42514852D02*
X121932700Y-42324376D01*
X122075557Y-42514852D01*
D10*
X112115647Y-59375550D02*
X112115647Y-59780312D01*
X112139457Y-59827931D01*
X112163266Y-59851740D01*
X112210885Y-59875550D01*
X112306123Y-59875550D01*
X112353742Y-59851740D01*
X112377552Y-59827931D01*
X112401361Y-59780312D01*
X112401361Y-59375550D01*
X112591838Y-59375550D02*
X112901361Y-59375550D01*
X112734695Y-59566026D01*
X112806123Y-59566026D01*
X112853742Y-59589836D01*
X112877552Y-59613645D01*
X112901361Y-59661264D01*
X112901361Y-59780312D01*
X112877552Y-59827931D01*
X112853742Y-59851740D01*
X112806123Y-59875550D01*
X112663266Y-59875550D01*
X112615647Y-59851740D01*
X112591838Y-59827931D01*
D16*
X130496013Y-45928540D02*
X130162680Y-45452350D01*
X129924584Y-45928540D02*
X129924584Y-44928540D01*
X130305537Y-44928540D01*
X130400775Y-44976160D01*
X130448394Y-45023779D01*
X130496013Y-45119017D01*
X130496013Y-45261874D01*
X130448394Y-45357112D01*
X130400775Y-45404731D01*
X130305537Y-45452350D01*
X129924584Y-45452350D01*
X131353156Y-44928540D02*
X131162680Y-44928540D01*
X131067441Y-44976160D01*
X131019822Y-45023779D01*
X130924584Y-45166636D01*
X130876965Y-45357112D01*
X130876965Y-45738064D01*
X130924584Y-45833302D01*
X130972203Y-45880921D01*
X131067441Y-45928540D01*
X131257918Y-45928540D01*
X131353156Y-45880921D01*
X131400775Y-45833302D01*
X131448394Y-45738064D01*
X131448394Y-45499969D01*
X131400775Y-45404731D01*
X131353156Y-45357112D01*
X131257918Y-45309493D01*
X131067441Y-45309493D01*
X130972203Y-45357112D01*
X130924584Y-45404731D01*
X130876965Y-45499969D01*
X134472680Y-44928540D02*
X134472680Y-45166636D01*
X134234584Y-45071398D02*
X134472680Y-45166636D01*
X134710775Y-45071398D01*
X134329822Y-45357112D02*
X134472680Y-45166636D01*
X134615537Y-45357112D01*
X136421904Y-44902380D02*
X136421904Y-43902380D01*
X136660000Y-43902380D01*
X136802857Y-43950000D01*
X136898095Y-44045238D01*
X136945714Y-44140476D01*
X136993333Y-44330952D01*
X136993333Y-44473809D01*
X136945714Y-44664285D01*
X136898095Y-44759523D01*
X136802857Y-44854761D01*
X136660000Y-44902380D01*
X136421904Y-44902380D01*
X137945714Y-44902380D02*
X137374285Y-44902380D01*
X137660000Y-44902380D02*
X137660000Y-43902380D01*
X137564761Y-44045238D01*
X137469523Y-44140476D01*
X137374285Y-44188095D01*
D11*
X148816546Y-71529070D02*
X148649880Y-71290975D01*
X148530832Y-71529070D02*
X148530832Y-71029070D01*
X148721308Y-71029070D01*
X148768927Y-71052880D01*
X148792737Y-71076689D01*
X148816546Y-71124308D01*
X148816546Y-71195737D01*
X148792737Y-71243356D01*
X148768927Y-71267165D01*
X148721308Y-71290975D01*
X148530832Y-71290975D01*
X149245118Y-71195737D02*
X149245118Y-71529070D01*
X149126070Y-71005260D02*
X149007022Y-71362403D01*
X149316546Y-71362403D01*
D16*
X149672040Y-71009260D02*
X149672040Y-71247356D01*
X149433944Y-71152118D02*
X149672040Y-71247356D01*
X149910135Y-71152118D01*
X149529182Y-71437832D02*
X149672040Y-71247356D01*
X149814897Y-71437832D01*
D11*
X149446466Y-68707130D02*
X149279800Y-68469035D01*
X149160752Y-68707130D02*
X149160752Y-68207130D01*
X149351228Y-68207130D01*
X149398847Y-68230940D01*
X149422657Y-68254749D01*
X149446466Y-68302368D01*
X149446466Y-68373797D01*
X149422657Y-68421416D01*
X149398847Y-68445225D01*
X149351228Y-68469035D01*
X149160752Y-68469035D01*
X149898847Y-68207130D02*
X149660752Y-68207130D01*
X149636942Y-68445225D01*
X149660752Y-68421416D01*
X149708371Y-68397606D01*
X149827419Y-68397606D01*
X149875038Y-68421416D01*
X149898847Y-68445225D01*
X149922657Y-68492844D01*
X149922657Y-68611892D01*
X149898847Y-68659511D01*
X149875038Y-68683320D01*
X149827419Y-68707130D01*
X149708371Y-68707130D01*
X149660752Y-68683320D01*
X149636942Y-68659511D01*
D16*
X148777960Y-68179700D02*
X148777960Y-68417796D01*
X148539864Y-68322558D02*
X148777960Y-68417796D01*
X149016055Y-68322558D01*
X148635102Y-68608272D02*
X148777960Y-68417796D01*
X148920817Y-68608272D01*
D10*
X148126398Y-85889532D02*
X148240945Y-85927714D01*
X148431859Y-85927714D01*
X148508224Y-85889532D01*
X148546406Y-85851349D01*
X148584589Y-85774984D01*
X148584589Y-85698619D01*
X148546406Y-85622253D01*
X148508224Y-85584071D01*
X148431859Y-85545888D01*
X148279128Y-85507706D01*
X148202763Y-85469523D01*
X148164580Y-85431340D01*
X148126398Y-85354975D01*
X148126398Y-85278610D01*
X148164580Y-85202245D01*
X148202763Y-85164062D01*
X148279128Y-85125879D01*
X148470041Y-85125879D01*
X148584589Y-85164062D01*
X148890050Y-85202245D02*
X148928233Y-85164062D01*
X149004598Y-85125879D01*
X149195511Y-85125879D01*
X149271876Y-85164062D01*
X149310059Y-85202245D01*
X149348241Y-85278610D01*
X149348241Y-85354975D01*
X149310059Y-85469523D01*
X148851867Y-85927714D01*
X149348241Y-85927714D01*
D16*
X118641904Y-44902380D02*
X118641904Y-43902380D01*
X118880000Y-43902380D01*
X119022857Y-43950000D01*
X119118095Y-44045238D01*
X119165714Y-44140476D01*
X119213333Y-44330952D01*
X119213333Y-44473809D01*
X119165714Y-44664285D01*
X119118095Y-44759523D01*
X119022857Y-44854761D01*
X118880000Y-44902380D01*
X118641904Y-44902380D01*
X119594285Y-43997619D02*
X119641904Y-43950000D01*
X119737142Y-43902380D01*
X119975238Y-43902380D01*
X120070476Y-43950000D01*
X120118095Y-43997619D01*
X120165714Y-44092857D01*
X120165714Y-44188095D01*
X120118095Y-44330952D01*
X119546666Y-44902380D01*
X120165714Y-44902380D01*
D10*
X133199285Y-78033571D02*
X133342142Y-78081190D01*
X133389761Y-78128809D01*
X133437380Y-78224047D01*
X133437380Y-78366904D01*
X133389761Y-78462142D01*
X133342142Y-78509761D01*
X133246904Y-78557380D01*
X132865952Y-78557380D01*
X132865952Y-77557380D01*
X133199285Y-77557380D01*
X133294523Y-77605000D01*
X133342142Y-77652619D01*
X133389761Y-77747857D01*
X133389761Y-77843095D01*
X133342142Y-77938333D01*
X133294523Y-77985952D01*
X133199285Y-78033571D01*
X132865952Y-78033571D01*
X133723095Y-77557380D02*
X134294523Y-77557380D01*
X134008809Y-78557380D02*
X134008809Y-77557380D01*
X135151666Y-78557380D02*
X134580238Y-78557380D01*
X134865952Y-78557380D02*
X134865952Y-77557380D01*
X134770714Y-77700238D01*
X134675476Y-77795476D01*
X134580238Y-77843095D01*
X137046607Y-64533356D02*
X137065355Y-64552104D01*
X137084102Y-64608347D01*
X137084102Y-64645842D01*
X137065355Y-64702085D01*
X137027859Y-64739581D01*
X136990364Y-64758328D01*
X136915373Y-64777076D01*
X136859130Y-64777076D01*
X136784140Y-64758328D01*
X136746644Y-64739581D01*
X136709149Y-64702085D01*
X136690401Y-64645842D01*
X136690401Y-64608347D01*
X136709149Y-64552104D01*
X136727897Y-64533356D01*
X137084102Y-64158403D02*
X137084102Y-64383375D01*
X137084102Y-64270889D02*
X136690401Y-64270889D01*
X136746644Y-64308384D01*
X136784140Y-64345880D01*
X136802887Y-64383375D01*
X143606753Y-80647035D02*
X143644915Y-80532551D01*
X143644915Y-80341742D01*
X143606753Y-80265419D01*
X143568592Y-80227258D01*
X143492268Y-80189096D01*
X143415945Y-80189096D01*
X143339622Y-80227258D01*
X143301460Y-80265419D01*
X143263299Y-80341742D01*
X143225137Y-80494389D01*
X143186975Y-80570712D01*
X143148814Y-80608874D01*
X143072491Y-80647035D01*
X142996167Y-80647035D01*
X142919844Y-80608874D01*
X142881683Y-80570712D01*
X142843521Y-80494389D01*
X142843521Y-80303581D01*
X142881683Y-80189096D01*
X143644915Y-79425864D02*
X143644915Y-79883803D01*
X143644915Y-79654833D02*
X142843521Y-79654833D01*
X142958006Y-79731157D01*
X143034329Y-79807480D01*
X143072491Y-79883803D01*
X129718102Y-62295616D02*
X129530626Y-62426850D01*
X129718102Y-62520588D02*
X129324401Y-62520588D01*
X129324401Y-62370607D01*
X129343149Y-62333112D01*
X129361897Y-62314364D01*
X129399392Y-62295616D01*
X129455635Y-62295616D01*
X129493130Y-62314364D01*
X129511878Y-62333112D01*
X129530626Y-62370607D01*
X129530626Y-62520588D01*
X129718102Y-61920663D02*
X129718102Y-62145635D01*
X129718102Y-62033149D02*
X129324401Y-62033149D01*
X129380644Y-62070644D01*
X129418140Y-62108140D01*
X129436887Y-62145635D01*
X122098102Y-62295616D02*
X121910626Y-62426850D01*
X122098102Y-62520588D02*
X121704401Y-62520588D01*
X121704401Y-62370607D01*
X121723149Y-62333112D01*
X121741897Y-62314364D01*
X121779392Y-62295616D01*
X121835635Y-62295616D01*
X121873130Y-62314364D01*
X121891878Y-62333112D01*
X121910626Y-62370607D01*
X121910626Y-62520588D01*
X121741897Y-62145635D02*
X121723149Y-62126887D01*
X121704401Y-62089392D01*
X121704401Y-61995654D01*
X121723149Y-61958158D01*
X121741897Y-61939411D01*
X121779392Y-61920663D01*
X121816887Y-61920663D01*
X121873130Y-61939411D01*
X122098102Y-62164383D01*
X122098102Y-61920663D01*
X125908102Y-62295616D02*
X125720626Y-62426850D01*
X125908102Y-62520588D02*
X125514401Y-62520588D01*
X125514401Y-62370607D01*
X125533149Y-62333112D01*
X125551897Y-62314364D01*
X125589392Y-62295616D01*
X125645635Y-62295616D01*
X125683130Y-62314364D01*
X125701878Y-62333112D01*
X125720626Y-62370607D01*
X125720626Y-62520588D01*
X125514401Y-62164383D02*
X125514401Y-61920663D01*
X125664383Y-62051897D01*
X125664383Y-61995654D01*
X125683130Y-61958158D01*
X125701878Y-61939411D01*
X125739373Y-61920663D01*
X125833112Y-61920663D01*
X125870607Y-61939411D01*
X125889355Y-61958158D01*
X125908102Y-61995654D01*
X125908102Y-62108140D01*
X125889355Y-62145635D01*
X125870607Y-62164383D01*
M02*
