G04 #@! TF.GenerationSoftware,KiCad,Pcbnew,(5.1.4)-1*
G04 #@! TF.CreationDate,2020-02-07T15:18:06-05:00*
G04 #@! TF.ProjectId,ledFlasherCircuit,6c656446-6c61-4736-9865-724369726375,rev?*
G04 #@! TF.SameCoordinates,Original*
G04 #@! TF.FileFunction,Copper,L2,Bot*
G04 #@! TF.FilePolarity,Positive*
%FSLAX46Y46*%
G04 Gerber Fmt 4.6, Leading zero omitted, Abs format (unit mm)*
G04 Created by KiCad (PCBNEW (5.1.4)-1) date 2020-02-07 15:18:06*
%MOMM*%
%LPD*%
G04 APERTURE LIST*
%ADD10R,1.392000X1.392000*%
%ADD11C,1.392000*%
%ADD12R,1.800000X1.800000*%
%ADD13C,1.800000*%
%ADD14C,5.000000*%
%ADD15C,0.800000*%
%ADD16C,0.250000*%
%ADD17C,0.500000*%
%ADD18C,0.254000*%
G04 APERTURE END LIST*
D10*
X134472700Y-42633900D03*
D11*
X121932700Y-42633900D03*
X134472680Y-45476160D03*
D10*
X121899680Y-45476160D03*
D12*
X142240000Y-44450000D03*
D13*
X139700000Y-44450000D03*
D12*
X116840000Y-44450000D03*
D13*
X114300000Y-44450000D03*
D14*
X106426000Y-44196000D03*
X150114000Y-44196000D03*
D15*
X150799800Y-86360000D03*
X105727500Y-86360000D03*
D16*
X144780000Y-44450000D02*
X144780000Y-45600000D01*
D17*
X144780000Y-45600000D02*
X145983000Y-46803000D01*
X147768000Y-46803000D02*
X148590000Y-47625000D01*
X148590000Y-47625000D02*
X152400000Y-47625000D01*
X152400000Y-47625000D02*
X153035000Y-48260000D01*
X147133000Y-46803000D02*
X146304000Y-45974000D01*
X145983000Y-46803000D02*
X147133000Y-46803000D01*
X147133000Y-46803000D02*
X147768000Y-46803000D01*
X152400000Y-86360000D02*
X153035000Y-85725000D01*
X151765000Y-86360000D02*
X152400000Y-86360000D01*
X153035000Y-48260000D02*
X153035000Y-85725000D01*
X150799800Y-86360000D02*
X152400000Y-86360000D01*
X107950000Y-47625000D02*
X108585000Y-46990000D01*
X108585000Y-46990000D02*
X121285000Y-46990000D01*
X104140000Y-47625000D02*
X107950000Y-47625000D01*
X121953000Y-46322000D02*
X121953000Y-45720000D01*
X121285000Y-46990000D02*
X121953000Y-46322000D01*
X103505000Y-48260000D02*
X104140000Y-47625000D01*
X104140000Y-86360000D02*
X103505000Y-85725000D01*
X103505000Y-85725000D02*
X103505000Y-48260000D01*
X105727500Y-86360000D02*
X104140000Y-86360000D01*
D18*
G36*
X133652218Y-41312088D02*
G01*
X133532520Y-41348398D01*
X133422206Y-41407363D01*
X133325515Y-41486715D01*
X133246163Y-41583406D01*
X133187198Y-41693720D01*
X133150888Y-41813418D01*
X133138628Y-41937900D01*
X133138628Y-43329900D01*
X133150888Y-43454382D01*
X133187198Y-43574080D01*
X133246163Y-43684394D01*
X133325515Y-43781085D01*
X133422206Y-43860437D01*
X133532520Y-43919402D01*
X133652218Y-43955712D01*
X133776700Y-43967972D01*
X135168700Y-43967972D01*
X135293182Y-43955712D01*
X135412880Y-43919402D01*
X135523194Y-43860437D01*
X135619885Y-43781085D01*
X135699237Y-43684394D01*
X135758202Y-43574080D01*
X135794512Y-43454382D01*
X135806772Y-43329900D01*
X135806772Y-41937900D01*
X135794512Y-41813418D01*
X135758202Y-41693720D01*
X135699237Y-41583406D01*
X135619885Y-41486715D01*
X135523194Y-41407363D01*
X135412880Y-41348398D01*
X135293182Y-41312088D01*
X135170446Y-41300000D01*
X146685000Y-41300000D01*
X146685000Y-46863000D01*
X122653887Y-46863000D01*
X122692411Y-46816059D01*
X122701074Y-46799852D01*
X122720162Y-46797972D01*
X122839860Y-46761662D01*
X122950174Y-46702697D01*
X123046865Y-46623345D01*
X123126217Y-46526654D01*
X123185182Y-46416340D01*
X123221492Y-46296642D01*
X123233752Y-46172160D01*
X123233752Y-45345068D01*
X133141680Y-45345068D01*
X133141680Y-45607252D01*
X133192830Y-45864398D01*
X133293163Y-46106625D01*
X133438825Y-46324623D01*
X133624217Y-46510015D01*
X133842215Y-46655677D01*
X134084442Y-46756010D01*
X134341588Y-46807160D01*
X134603772Y-46807160D01*
X134860918Y-46756010D01*
X135103145Y-46655677D01*
X135321143Y-46510015D01*
X135506535Y-46324623D01*
X135652197Y-46106625D01*
X135752530Y-45864398D01*
X135803680Y-45607252D01*
X135803680Y-45345068D01*
X135752530Y-45087922D01*
X135652197Y-44845695D01*
X135506535Y-44627697D01*
X135321143Y-44442305D01*
X135106398Y-44298816D01*
X138165000Y-44298816D01*
X138165000Y-44601184D01*
X138223989Y-44897743D01*
X138339701Y-45177095D01*
X138507688Y-45428505D01*
X138721495Y-45642312D01*
X138972905Y-45810299D01*
X139252257Y-45926011D01*
X139548816Y-45985000D01*
X139851184Y-45985000D01*
X140147743Y-45926011D01*
X140427095Y-45810299D01*
X140678505Y-45642312D01*
X140744944Y-45575873D01*
X140750498Y-45594180D01*
X140809463Y-45704494D01*
X140888815Y-45801185D01*
X140985506Y-45880537D01*
X141095820Y-45939502D01*
X141215518Y-45975812D01*
X141340000Y-45988072D01*
X141954250Y-45985000D01*
X142113000Y-45826250D01*
X142113000Y-44577000D01*
X142367000Y-44577000D01*
X142367000Y-45826250D01*
X142525750Y-45985000D01*
X143140000Y-45988072D01*
X143264482Y-45975812D01*
X143384180Y-45939502D01*
X143494494Y-45880537D01*
X143591185Y-45801185D01*
X143670537Y-45704494D01*
X143729502Y-45594180D01*
X143765812Y-45474482D01*
X143778072Y-45350000D01*
X143775000Y-44735750D01*
X143616250Y-44577000D01*
X142367000Y-44577000D01*
X142113000Y-44577000D01*
X142093000Y-44577000D01*
X142093000Y-44323000D01*
X142113000Y-44323000D01*
X142113000Y-43073750D01*
X142367000Y-43073750D01*
X142367000Y-44323000D01*
X143616250Y-44323000D01*
X143775000Y-44164250D01*
X143778072Y-43550000D01*
X143765812Y-43425518D01*
X143729502Y-43305820D01*
X143670537Y-43195506D01*
X143591185Y-43098815D01*
X143494494Y-43019463D01*
X143384180Y-42960498D01*
X143264482Y-42924188D01*
X143140000Y-42911928D01*
X142525750Y-42915000D01*
X142367000Y-43073750D01*
X142113000Y-43073750D01*
X141954250Y-42915000D01*
X141340000Y-42911928D01*
X141215518Y-42924188D01*
X141095820Y-42960498D01*
X140985506Y-43019463D01*
X140888815Y-43098815D01*
X140809463Y-43195506D01*
X140750498Y-43305820D01*
X140744944Y-43324127D01*
X140678505Y-43257688D01*
X140427095Y-43089701D01*
X140147743Y-42973989D01*
X139851184Y-42915000D01*
X139548816Y-42915000D01*
X139252257Y-42973989D01*
X138972905Y-43089701D01*
X138721495Y-43257688D01*
X138507688Y-43471495D01*
X138339701Y-43722905D01*
X138223989Y-44002257D01*
X138165000Y-44298816D01*
X135106398Y-44298816D01*
X135103145Y-44296643D01*
X134860918Y-44196310D01*
X134603772Y-44145160D01*
X134341588Y-44145160D01*
X134084442Y-44196310D01*
X133842215Y-44296643D01*
X133624217Y-44442305D01*
X133438825Y-44627697D01*
X133293163Y-44845695D01*
X133192830Y-45087922D01*
X133141680Y-45345068D01*
X123233752Y-45345068D01*
X123233752Y-44780160D01*
X123221492Y-44655678D01*
X123185182Y-44535980D01*
X123126217Y-44425666D01*
X123046865Y-44328975D01*
X122950174Y-44249623D01*
X122839860Y-44190658D01*
X122720162Y-44154348D01*
X122595680Y-44142088D01*
X121203680Y-44142088D01*
X121079198Y-44154348D01*
X120959500Y-44190658D01*
X120849186Y-44249623D01*
X120752495Y-44328975D01*
X120673143Y-44425666D01*
X120614178Y-44535980D01*
X120577868Y-44655678D01*
X120565608Y-44780160D01*
X120565608Y-46105000D01*
X109855000Y-46105000D01*
X109855000Y-44298816D01*
X112765000Y-44298816D01*
X112765000Y-44601184D01*
X112823989Y-44897743D01*
X112939701Y-45177095D01*
X113107688Y-45428505D01*
X113321495Y-45642312D01*
X113572905Y-45810299D01*
X113852257Y-45926011D01*
X114148816Y-45985000D01*
X114451184Y-45985000D01*
X114747743Y-45926011D01*
X115027095Y-45810299D01*
X115278505Y-45642312D01*
X115344944Y-45575873D01*
X115350498Y-45594180D01*
X115409463Y-45704494D01*
X115488815Y-45801185D01*
X115585506Y-45880537D01*
X115695820Y-45939502D01*
X115815518Y-45975812D01*
X115940000Y-45988072D01*
X116554250Y-45985000D01*
X116713000Y-45826250D01*
X116713000Y-44577000D01*
X116967000Y-44577000D01*
X116967000Y-45826250D01*
X117125750Y-45985000D01*
X117740000Y-45988072D01*
X117864482Y-45975812D01*
X117984180Y-45939502D01*
X118094494Y-45880537D01*
X118191185Y-45801185D01*
X118270537Y-45704494D01*
X118329502Y-45594180D01*
X118365812Y-45474482D01*
X118378072Y-45350000D01*
X118375000Y-44735750D01*
X118216250Y-44577000D01*
X116967000Y-44577000D01*
X116713000Y-44577000D01*
X116693000Y-44577000D01*
X116693000Y-44323000D01*
X116713000Y-44323000D01*
X116713000Y-43073750D01*
X116967000Y-43073750D01*
X116967000Y-44323000D01*
X118216250Y-44323000D01*
X118375000Y-44164250D01*
X118378072Y-43550000D01*
X118365812Y-43425518D01*
X118329502Y-43305820D01*
X118270537Y-43195506D01*
X118191185Y-43098815D01*
X118094494Y-43019463D01*
X117984180Y-42960498D01*
X117864482Y-42924188D01*
X117740000Y-42911928D01*
X117125750Y-42915000D01*
X116967000Y-43073750D01*
X116713000Y-43073750D01*
X116554250Y-42915000D01*
X115940000Y-42911928D01*
X115815518Y-42924188D01*
X115695820Y-42960498D01*
X115585506Y-43019463D01*
X115488815Y-43098815D01*
X115409463Y-43195506D01*
X115350498Y-43305820D01*
X115344944Y-43324127D01*
X115278505Y-43257688D01*
X115027095Y-43089701D01*
X114747743Y-42973989D01*
X114451184Y-42915000D01*
X114148816Y-42915000D01*
X113852257Y-42973989D01*
X113572905Y-43089701D01*
X113321495Y-43257688D01*
X113107688Y-43471495D01*
X112939701Y-43722905D01*
X112823989Y-44002257D01*
X112765000Y-44298816D01*
X109855000Y-44298816D01*
X109855000Y-42502808D01*
X120601700Y-42502808D01*
X120601700Y-42764992D01*
X120652850Y-43022138D01*
X120753183Y-43264365D01*
X120898845Y-43482363D01*
X121084237Y-43667755D01*
X121302235Y-43813417D01*
X121544462Y-43913750D01*
X121801608Y-43964900D01*
X122063792Y-43964900D01*
X122320938Y-43913750D01*
X122563165Y-43813417D01*
X122781163Y-43667755D01*
X122966555Y-43482363D01*
X123112217Y-43264365D01*
X123212550Y-43022138D01*
X123263700Y-42764992D01*
X123263700Y-42502808D01*
X123212550Y-42245662D01*
X123112217Y-42003435D01*
X122966555Y-41785437D01*
X122781163Y-41600045D01*
X122563165Y-41454383D01*
X122320938Y-41354050D01*
X122063792Y-41302900D01*
X121801608Y-41302900D01*
X121544462Y-41354050D01*
X121302235Y-41454383D01*
X121084237Y-41600045D01*
X120898845Y-41785437D01*
X120753183Y-42003435D01*
X120652850Y-42245662D01*
X120601700Y-42502808D01*
X109855000Y-42502808D01*
X109855000Y-41300000D01*
X133774954Y-41300000D01*
X133652218Y-41312088D01*
X133652218Y-41312088D01*
G37*
X133652218Y-41312088D02*
X133532520Y-41348398D01*
X133422206Y-41407363D01*
X133325515Y-41486715D01*
X133246163Y-41583406D01*
X133187198Y-41693720D01*
X133150888Y-41813418D01*
X133138628Y-41937900D01*
X133138628Y-43329900D01*
X133150888Y-43454382D01*
X133187198Y-43574080D01*
X133246163Y-43684394D01*
X133325515Y-43781085D01*
X133422206Y-43860437D01*
X133532520Y-43919402D01*
X133652218Y-43955712D01*
X133776700Y-43967972D01*
X135168700Y-43967972D01*
X135293182Y-43955712D01*
X135412880Y-43919402D01*
X135523194Y-43860437D01*
X135619885Y-43781085D01*
X135699237Y-43684394D01*
X135758202Y-43574080D01*
X135794512Y-43454382D01*
X135806772Y-43329900D01*
X135806772Y-41937900D01*
X135794512Y-41813418D01*
X135758202Y-41693720D01*
X135699237Y-41583406D01*
X135619885Y-41486715D01*
X135523194Y-41407363D01*
X135412880Y-41348398D01*
X135293182Y-41312088D01*
X135170446Y-41300000D01*
X146685000Y-41300000D01*
X146685000Y-46863000D01*
X122653887Y-46863000D01*
X122692411Y-46816059D01*
X122701074Y-46799852D01*
X122720162Y-46797972D01*
X122839860Y-46761662D01*
X122950174Y-46702697D01*
X123046865Y-46623345D01*
X123126217Y-46526654D01*
X123185182Y-46416340D01*
X123221492Y-46296642D01*
X123233752Y-46172160D01*
X123233752Y-45345068D01*
X133141680Y-45345068D01*
X133141680Y-45607252D01*
X133192830Y-45864398D01*
X133293163Y-46106625D01*
X133438825Y-46324623D01*
X133624217Y-46510015D01*
X133842215Y-46655677D01*
X134084442Y-46756010D01*
X134341588Y-46807160D01*
X134603772Y-46807160D01*
X134860918Y-46756010D01*
X135103145Y-46655677D01*
X135321143Y-46510015D01*
X135506535Y-46324623D01*
X135652197Y-46106625D01*
X135752530Y-45864398D01*
X135803680Y-45607252D01*
X135803680Y-45345068D01*
X135752530Y-45087922D01*
X135652197Y-44845695D01*
X135506535Y-44627697D01*
X135321143Y-44442305D01*
X135106398Y-44298816D01*
X138165000Y-44298816D01*
X138165000Y-44601184D01*
X138223989Y-44897743D01*
X138339701Y-45177095D01*
X138507688Y-45428505D01*
X138721495Y-45642312D01*
X138972905Y-45810299D01*
X139252257Y-45926011D01*
X139548816Y-45985000D01*
X139851184Y-45985000D01*
X140147743Y-45926011D01*
X140427095Y-45810299D01*
X140678505Y-45642312D01*
X140744944Y-45575873D01*
X140750498Y-45594180D01*
X140809463Y-45704494D01*
X140888815Y-45801185D01*
X140985506Y-45880537D01*
X141095820Y-45939502D01*
X141215518Y-45975812D01*
X141340000Y-45988072D01*
X141954250Y-45985000D01*
X142113000Y-45826250D01*
X142113000Y-44577000D01*
X142367000Y-44577000D01*
X142367000Y-45826250D01*
X142525750Y-45985000D01*
X143140000Y-45988072D01*
X143264482Y-45975812D01*
X143384180Y-45939502D01*
X143494494Y-45880537D01*
X143591185Y-45801185D01*
X143670537Y-45704494D01*
X143729502Y-45594180D01*
X143765812Y-45474482D01*
X143778072Y-45350000D01*
X143775000Y-44735750D01*
X143616250Y-44577000D01*
X142367000Y-44577000D01*
X142113000Y-44577000D01*
X142093000Y-44577000D01*
X142093000Y-44323000D01*
X142113000Y-44323000D01*
X142113000Y-43073750D01*
X142367000Y-43073750D01*
X142367000Y-44323000D01*
X143616250Y-44323000D01*
X143775000Y-44164250D01*
X143778072Y-43550000D01*
X143765812Y-43425518D01*
X143729502Y-43305820D01*
X143670537Y-43195506D01*
X143591185Y-43098815D01*
X143494494Y-43019463D01*
X143384180Y-42960498D01*
X143264482Y-42924188D01*
X143140000Y-42911928D01*
X142525750Y-42915000D01*
X142367000Y-43073750D01*
X142113000Y-43073750D01*
X141954250Y-42915000D01*
X141340000Y-42911928D01*
X141215518Y-42924188D01*
X141095820Y-42960498D01*
X140985506Y-43019463D01*
X140888815Y-43098815D01*
X140809463Y-43195506D01*
X140750498Y-43305820D01*
X140744944Y-43324127D01*
X140678505Y-43257688D01*
X140427095Y-43089701D01*
X140147743Y-42973989D01*
X139851184Y-42915000D01*
X139548816Y-42915000D01*
X139252257Y-42973989D01*
X138972905Y-43089701D01*
X138721495Y-43257688D01*
X138507688Y-43471495D01*
X138339701Y-43722905D01*
X138223989Y-44002257D01*
X138165000Y-44298816D01*
X135106398Y-44298816D01*
X135103145Y-44296643D01*
X134860918Y-44196310D01*
X134603772Y-44145160D01*
X134341588Y-44145160D01*
X134084442Y-44196310D01*
X133842215Y-44296643D01*
X133624217Y-44442305D01*
X133438825Y-44627697D01*
X133293163Y-44845695D01*
X133192830Y-45087922D01*
X133141680Y-45345068D01*
X123233752Y-45345068D01*
X123233752Y-44780160D01*
X123221492Y-44655678D01*
X123185182Y-44535980D01*
X123126217Y-44425666D01*
X123046865Y-44328975D01*
X122950174Y-44249623D01*
X122839860Y-44190658D01*
X122720162Y-44154348D01*
X122595680Y-44142088D01*
X121203680Y-44142088D01*
X121079198Y-44154348D01*
X120959500Y-44190658D01*
X120849186Y-44249623D01*
X120752495Y-44328975D01*
X120673143Y-44425666D01*
X120614178Y-44535980D01*
X120577868Y-44655678D01*
X120565608Y-44780160D01*
X120565608Y-46105000D01*
X109855000Y-46105000D01*
X109855000Y-44298816D01*
X112765000Y-44298816D01*
X112765000Y-44601184D01*
X112823989Y-44897743D01*
X112939701Y-45177095D01*
X113107688Y-45428505D01*
X113321495Y-45642312D01*
X113572905Y-45810299D01*
X113852257Y-45926011D01*
X114148816Y-45985000D01*
X114451184Y-45985000D01*
X114747743Y-45926011D01*
X115027095Y-45810299D01*
X115278505Y-45642312D01*
X115344944Y-45575873D01*
X115350498Y-45594180D01*
X115409463Y-45704494D01*
X115488815Y-45801185D01*
X115585506Y-45880537D01*
X115695820Y-45939502D01*
X115815518Y-45975812D01*
X115940000Y-45988072D01*
X116554250Y-45985000D01*
X116713000Y-45826250D01*
X116713000Y-44577000D01*
X116967000Y-44577000D01*
X116967000Y-45826250D01*
X117125750Y-45985000D01*
X117740000Y-45988072D01*
X117864482Y-45975812D01*
X117984180Y-45939502D01*
X118094494Y-45880537D01*
X118191185Y-45801185D01*
X118270537Y-45704494D01*
X118329502Y-45594180D01*
X118365812Y-45474482D01*
X118378072Y-45350000D01*
X118375000Y-44735750D01*
X118216250Y-44577000D01*
X116967000Y-44577000D01*
X116713000Y-44577000D01*
X116693000Y-44577000D01*
X116693000Y-44323000D01*
X116713000Y-44323000D01*
X116713000Y-43073750D01*
X116967000Y-43073750D01*
X116967000Y-44323000D01*
X118216250Y-44323000D01*
X118375000Y-44164250D01*
X118378072Y-43550000D01*
X118365812Y-43425518D01*
X118329502Y-43305820D01*
X118270537Y-43195506D01*
X118191185Y-43098815D01*
X118094494Y-43019463D01*
X117984180Y-42960498D01*
X117864482Y-42924188D01*
X117740000Y-42911928D01*
X117125750Y-42915000D01*
X116967000Y-43073750D01*
X116713000Y-43073750D01*
X116554250Y-42915000D01*
X115940000Y-42911928D01*
X115815518Y-42924188D01*
X115695820Y-42960498D01*
X115585506Y-43019463D01*
X115488815Y-43098815D01*
X115409463Y-43195506D01*
X115350498Y-43305820D01*
X115344944Y-43324127D01*
X115278505Y-43257688D01*
X115027095Y-43089701D01*
X114747743Y-42973989D01*
X114451184Y-42915000D01*
X114148816Y-42915000D01*
X113852257Y-42973989D01*
X113572905Y-43089701D01*
X113321495Y-43257688D01*
X113107688Y-43471495D01*
X112939701Y-43722905D01*
X112823989Y-44002257D01*
X112765000Y-44298816D01*
X109855000Y-44298816D01*
X109855000Y-42502808D01*
X120601700Y-42502808D01*
X120601700Y-42764992D01*
X120652850Y-43022138D01*
X120753183Y-43264365D01*
X120898845Y-43482363D01*
X121084237Y-43667755D01*
X121302235Y-43813417D01*
X121544462Y-43913750D01*
X121801608Y-43964900D01*
X122063792Y-43964900D01*
X122320938Y-43913750D01*
X122563165Y-43813417D01*
X122781163Y-43667755D01*
X122966555Y-43482363D01*
X123112217Y-43264365D01*
X123212550Y-43022138D01*
X123263700Y-42764992D01*
X123263700Y-42502808D01*
X123212550Y-42245662D01*
X123112217Y-42003435D01*
X122966555Y-41785437D01*
X122781163Y-41600045D01*
X122563165Y-41454383D01*
X122320938Y-41354050D01*
X122063792Y-41302900D01*
X121801608Y-41302900D01*
X121544462Y-41354050D01*
X121302235Y-41454383D01*
X121084237Y-41600045D01*
X120898845Y-41785437D01*
X120753183Y-42003435D01*
X120652850Y-42245662D01*
X120601700Y-42502808D01*
X109855000Y-42502808D01*
X109855000Y-41300000D01*
X133774954Y-41300000D01*
X133652218Y-41312088D01*
G36*
X145326470Y-47398049D02*
G01*
X145354183Y-47431817D01*
X145387951Y-47459530D01*
X145387953Y-47459532D01*
X145462351Y-47520589D01*
X145488941Y-47542411D01*
X145642687Y-47624589D01*
X145758903Y-47659843D01*
X145809509Y-47675195D01*
X145824306Y-47676652D01*
X145939523Y-47688000D01*
X145939531Y-47688000D01*
X145983000Y-47692281D01*
X146026469Y-47688000D01*
X147089533Y-47688000D01*
X147132999Y-47692281D01*
X147176466Y-47688000D01*
X147401422Y-47688000D01*
X147933468Y-48220047D01*
X147961183Y-48253817D01*
X147994951Y-48281530D01*
X147994953Y-48281532D01*
X148095941Y-48364411D01*
X148249686Y-48446589D01*
X148416510Y-48497195D01*
X148546523Y-48510000D01*
X148546531Y-48510000D01*
X148590000Y-48514281D01*
X148633469Y-48510000D01*
X152033422Y-48510000D01*
X152150000Y-48626579D01*
X152150001Y-85358420D01*
X152033422Y-85475000D01*
X151338254Y-85475000D01*
X151290056Y-85442795D01*
X151101698Y-85364774D01*
X150901739Y-85325000D01*
X150697861Y-85325000D01*
X150497902Y-85364774D01*
X150309544Y-85442795D01*
X150140026Y-85556063D01*
X149995863Y-85700226D01*
X149882595Y-85869744D01*
X149804574Y-86058102D01*
X149764800Y-86258061D01*
X149764800Y-86461939D01*
X149804574Y-86661898D01*
X149882595Y-86850256D01*
X149995863Y-87019774D01*
X150140026Y-87163937D01*
X150309544Y-87277205D01*
X150497902Y-87355226D01*
X150697861Y-87395000D01*
X150901739Y-87395000D01*
X151101698Y-87355226D01*
X151290056Y-87277205D01*
X151338254Y-87245000D01*
X152356531Y-87245000D01*
X152400000Y-87249281D01*
X152443469Y-87245000D01*
X152443477Y-87245000D01*
X152573490Y-87232195D01*
X152740313Y-87181589D01*
X152894059Y-87099411D01*
X153010001Y-87004259D01*
X153010001Y-87597711D01*
X152971091Y-87994545D01*
X152865220Y-88345206D01*
X152693257Y-88668623D01*
X152461748Y-88952482D01*
X152179514Y-89185965D01*
X151857304Y-89360184D01*
X151507385Y-89468502D01*
X151112557Y-89510000D01*
X105442279Y-89510000D01*
X105045455Y-89471091D01*
X104694794Y-89365220D01*
X104371377Y-89193257D01*
X104087518Y-88961748D01*
X103854035Y-88679514D01*
X103679816Y-88357304D01*
X103571498Y-88007385D01*
X103530000Y-87612557D01*
X103530000Y-87004260D01*
X103544951Y-87016530D01*
X103544953Y-87016532D01*
X103645941Y-87099411D01*
X103799686Y-87181589D01*
X103902772Y-87212860D01*
X103966510Y-87232195D01*
X104096523Y-87245000D01*
X104096531Y-87245000D01*
X104140000Y-87249281D01*
X104183469Y-87245000D01*
X105189046Y-87245000D01*
X105237244Y-87277205D01*
X105425602Y-87355226D01*
X105625561Y-87395000D01*
X105829439Y-87395000D01*
X106029398Y-87355226D01*
X106217756Y-87277205D01*
X106387274Y-87163937D01*
X106531437Y-87019774D01*
X106644705Y-86850256D01*
X106722726Y-86661898D01*
X106762500Y-86461939D01*
X106762500Y-86258061D01*
X106722726Y-86058102D01*
X106644705Y-85869744D01*
X106531437Y-85700226D01*
X106387274Y-85556063D01*
X106217756Y-85442795D01*
X106029398Y-85364774D01*
X105829439Y-85325000D01*
X105625561Y-85325000D01*
X105425602Y-85364774D01*
X105237244Y-85442795D01*
X105189046Y-85475000D01*
X104506579Y-85475000D01*
X104390000Y-85358422D01*
X104390000Y-48626578D01*
X104506579Y-48510000D01*
X107906531Y-48510000D01*
X107950000Y-48514281D01*
X107993469Y-48510000D01*
X107993477Y-48510000D01*
X108123490Y-48497195D01*
X108290313Y-48446589D01*
X108444059Y-48364411D01*
X108578817Y-48253817D01*
X108606534Y-48220044D01*
X108951579Y-47875000D01*
X121241531Y-47875000D01*
X121285000Y-47879281D01*
X121328469Y-47875000D01*
X121328477Y-47875000D01*
X121458490Y-47862195D01*
X121625313Y-47811589D01*
X121779059Y-47729411D01*
X121913817Y-47618817D01*
X121941534Y-47585044D01*
X122155578Y-47371000D01*
X145299421Y-47371000D01*
X145326470Y-47398049D01*
X145326470Y-47398049D01*
G37*
X145326470Y-47398049D02*
X145354183Y-47431817D01*
X145387951Y-47459530D01*
X145387953Y-47459532D01*
X145462351Y-47520589D01*
X145488941Y-47542411D01*
X145642687Y-47624589D01*
X145758903Y-47659843D01*
X145809509Y-47675195D01*
X145824306Y-47676652D01*
X145939523Y-47688000D01*
X145939531Y-47688000D01*
X145983000Y-47692281D01*
X146026469Y-47688000D01*
X147089533Y-47688000D01*
X147132999Y-47692281D01*
X147176466Y-47688000D01*
X147401422Y-47688000D01*
X147933468Y-48220047D01*
X147961183Y-48253817D01*
X147994951Y-48281530D01*
X147994953Y-48281532D01*
X148095941Y-48364411D01*
X148249686Y-48446589D01*
X148416510Y-48497195D01*
X148546523Y-48510000D01*
X148546531Y-48510000D01*
X148590000Y-48514281D01*
X148633469Y-48510000D01*
X152033422Y-48510000D01*
X152150000Y-48626579D01*
X152150001Y-85358420D01*
X152033422Y-85475000D01*
X151338254Y-85475000D01*
X151290056Y-85442795D01*
X151101698Y-85364774D01*
X150901739Y-85325000D01*
X150697861Y-85325000D01*
X150497902Y-85364774D01*
X150309544Y-85442795D01*
X150140026Y-85556063D01*
X149995863Y-85700226D01*
X149882595Y-85869744D01*
X149804574Y-86058102D01*
X149764800Y-86258061D01*
X149764800Y-86461939D01*
X149804574Y-86661898D01*
X149882595Y-86850256D01*
X149995863Y-87019774D01*
X150140026Y-87163937D01*
X150309544Y-87277205D01*
X150497902Y-87355226D01*
X150697861Y-87395000D01*
X150901739Y-87395000D01*
X151101698Y-87355226D01*
X151290056Y-87277205D01*
X151338254Y-87245000D01*
X152356531Y-87245000D01*
X152400000Y-87249281D01*
X152443469Y-87245000D01*
X152443477Y-87245000D01*
X152573490Y-87232195D01*
X152740313Y-87181589D01*
X152894059Y-87099411D01*
X153010001Y-87004259D01*
X153010001Y-87597711D01*
X152971091Y-87994545D01*
X152865220Y-88345206D01*
X152693257Y-88668623D01*
X152461748Y-88952482D01*
X152179514Y-89185965D01*
X151857304Y-89360184D01*
X151507385Y-89468502D01*
X151112557Y-89510000D01*
X105442279Y-89510000D01*
X105045455Y-89471091D01*
X104694794Y-89365220D01*
X104371377Y-89193257D01*
X104087518Y-88961748D01*
X103854035Y-88679514D01*
X103679816Y-88357304D01*
X103571498Y-88007385D01*
X103530000Y-87612557D01*
X103530000Y-87004260D01*
X103544951Y-87016530D01*
X103544953Y-87016532D01*
X103645941Y-87099411D01*
X103799686Y-87181589D01*
X103902772Y-87212860D01*
X103966510Y-87232195D01*
X104096523Y-87245000D01*
X104096531Y-87245000D01*
X104140000Y-87249281D01*
X104183469Y-87245000D01*
X105189046Y-87245000D01*
X105237244Y-87277205D01*
X105425602Y-87355226D01*
X105625561Y-87395000D01*
X105829439Y-87395000D01*
X106029398Y-87355226D01*
X106217756Y-87277205D01*
X106387274Y-87163937D01*
X106531437Y-87019774D01*
X106644705Y-86850256D01*
X106722726Y-86661898D01*
X106762500Y-86461939D01*
X106762500Y-86258061D01*
X106722726Y-86058102D01*
X106644705Y-85869744D01*
X106531437Y-85700226D01*
X106387274Y-85556063D01*
X106217756Y-85442795D01*
X106029398Y-85364774D01*
X105829439Y-85325000D01*
X105625561Y-85325000D01*
X105425602Y-85364774D01*
X105237244Y-85442795D01*
X105189046Y-85475000D01*
X104506579Y-85475000D01*
X104390000Y-85358422D01*
X104390000Y-48626578D01*
X104506579Y-48510000D01*
X107906531Y-48510000D01*
X107950000Y-48514281D01*
X107993469Y-48510000D01*
X107993477Y-48510000D01*
X108123490Y-48497195D01*
X108290313Y-48446589D01*
X108444059Y-48364411D01*
X108578817Y-48253817D01*
X108606534Y-48220044D01*
X108951579Y-47875000D01*
X121241531Y-47875000D01*
X121285000Y-47879281D01*
X121328469Y-47875000D01*
X121328477Y-47875000D01*
X121458490Y-47862195D01*
X121625313Y-47811589D01*
X121779059Y-47729411D01*
X121913817Y-47618817D01*
X121941534Y-47585044D01*
X122155578Y-47371000D01*
X145299421Y-47371000D01*
X145326470Y-47398049D01*
G36*
X103647799Y-45680979D02*
G01*
X103990886Y-46194446D01*
X104427554Y-46631114D01*
X104590514Y-46740000D01*
X104183469Y-46740000D01*
X104140000Y-46735719D01*
X104096531Y-46740000D01*
X104096523Y-46740000D01*
X103966510Y-46752805D01*
X103799686Y-46803411D01*
X103688202Y-46863000D01*
X103530000Y-46863000D01*
X103530000Y-45396588D01*
X103647799Y-45680979D01*
X103647799Y-45680979D01*
G37*
X103647799Y-45680979D02*
X103990886Y-46194446D01*
X104427554Y-46631114D01*
X104590514Y-46740000D01*
X104183469Y-46740000D01*
X104140000Y-46735719D01*
X104096531Y-46740000D01*
X104096523Y-46740000D01*
X103966510Y-46752805D01*
X103799686Y-46803411D01*
X103688202Y-46863000D01*
X103530000Y-46863000D01*
X103530000Y-45396588D01*
X103647799Y-45680979D01*
G36*
X109347000Y-46105000D02*
G01*
X108920880Y-46105000D01*
X109204201Y-45680979D01*
X109347000Y-45336232D01*
X109347000Y-46105000D01*
X109347000Y-46105000D01*
G37*
X109347000Y-46105000D02*
X108920880Y-46105000D01*
X109204201Y-45680979D01*
X109347000Y-45336232D01*
X109347000Y-46105000D01*
G36*
X109347000Y-43055768D02*
G01*
X109204201Y-42711021D01*
X108861114Y-42197554D01*
X108424446Y-41760886D01*
X107910979Y-41417799D01*
X107626588Y-41300000D01*
X109347000Y-41300000D01*
X109347000Y-43055768D01*
X109347000Y-43055768D01*
G37*
X109347000Y-43055768D02*
X109204201Y-42711021D01*
X108861114Y-42197554D01*
X108424446Y-41760886D01*
X107910979Y-41417799D01*
X107626588Y-41300000D01*
X109347000Y-41300000D01*
X109347000Y-43055768D01*
G36*
X104941021Y-41417799D02*
G01*
X104427554Y-41760886D01*
X103990886Y-42197554D01*
X103647799Y-42711021D01*
X103557859Y-42928156D01*
X103568909Y-42815455D01*
X103674780Y-42464792D01*
X103846744Y-42141375D01*
X104078254Y-41857516D01*
X104360486Y-41624035D01*
X104682695Y-41449817D01*
X105032614Y-41341498D01*
X105156718Y-41328454D01*
X104941021Y-41417799D01*
X104941021Y-41417799D01*
G37*
X104941021Y-41417799D02*
X104427554Y-41760886D01*
X103990886Y-42197554D01*
X103647799Y-42711021D01*
X103557859Y-42928156D01*
X103568909Y-42815455D01*
X103674780Y-42464792D01*
X103846744Y-42141375D01*
X104078254Y-41857516D01*
X104360486Y-41624035D01*
X104682695Y-41449817D01*
X105032614Y-41341498D01*
X105156718Y-41328454D01*
X104941021Y-41417799D01*
G36*
X153010000Y-46863000D02*
G01*
X152851797Y-46863000D01*
X152740313Y-46803411D01*
X152573490Y-46752805D01*
X152443477Y-46740000D01*
X152443469Y-46740000D01*
X152400000Y-46735719D01*
X152356531Y-46740000D01*
X151949486Y-46740000D01*
X152112446Y-46631114D01*
X152549114Y-46194446D01*
X152892201Y-45680979D01*
X153010000Y-45396588D01*
X153010000Y-46863000D01*
X153010000Y-46863000D01*
G37*
X153010000Y-46863000D02*
X152851797Y-46863000D01*
X152740313Y-46803411D01*
X152573490Y-46752805D01*
X152443477Y-46740000D01*
X152443469Y-46740000D01*
X152400000Y-46735719D01*
X152356531Y-46740000D01*
X151949486Y-46740000D01*
X152112446Y-46631114D01*
X152549114Y-46194446D01*
X152892201Y-45680979D01*
X153010000Y-45396588D01*
X153010000Y-46863000D01*
G36*
X147335799Y-45680979D02*
G01*
X147483282Y-45901703D01*
X147193000Y-45611421D01*
X147193000Y-45336232D01*
X147335799Y-45680979D01*
X147335799Y-45680979D01*
G37*
X147335799Y-45680979D02*
X147483282Y-45901703D01*
X147193000Y-45611421D01*
X147193000Y-45336232D01*
X147335799Y-45680979D01*
G36*
X148629021Y-41417799D02*
G01*
X148115554Y-41760886D01*
X147678886Y-42197554D01*
X147335799Y-42711021D01*
X147193000Y-43055768D01*
X147193000Y-41300000D01*
X148913412Y-41300000D01*
X148629021Y-41417799D01*
X148629021Y-41417799D01*
G37*
X148629021Y-41417799D02*
X148115554Y-41760886D01*
X147678886Y-42197554D01*
X147335799Y-42711021D01*
X147193000Y-43055768D01*
X147193000Y-41300000D01*
X148913412Y-41300000D01*
X148629021Y-41417799D01*
G36*
X151494545Y-41338909D02*
G01*
X151845208Y-41444780D01*
X152168625Y-41616744D01*
X152452484Y-41848254D01*
X152685965Y-42130486D01*
X152860183Y-42452695D01*
X152968502Y-42802614D01*
X152981546Y-42926718D01*
X152892201Y-42711021D01*
X152549114Y-42197554D01*
X152112446Y-41760886D01*
X151598979Y-41417799D01*
X151381844Y-41327859D01*
X151494545Y-41338909D01*
X151494545Y-41338909D01*
G37*
X151494545Y-41338909D02*
X151845208Y-41444780D01*
X152168625Y-41616744D01*
X152452484Y-41848254D01*
X152685965Y-42130486D01*
X152860183Y-42452695D01*
X152968502Y-42802614D01*
X152981546Y-42926718D01*
X152892201Y-42711021D01*
X152549114Y-42197554D01*
X152112446Y-41760886D01*
X151598979Y-41417799D01*
X151381844Y-41327859D01*
X151494545Y-41338909D01*
M02*
