G04 #@! TF.GenerationSoftware,KiCad,Pcbnew,(5.1.4)-1*
G04 #@! TF.CreationDate,2020-02-07T15:18:06-05:00*
G04 #@! TF.ProjectId,ledFlasherCircuit,6c656446-6c61-4736-9865-724369726375,rev?*
G04 #@! TF.SameCoordinates,Original*
G04 #@! TF.FileFunction,Copper,L1,Top*
G04 #@! TF.FilePolarity,Positive*
%FSLAX46Y46*%
G04 Gerber Fmt 4.6, Leading zero omitted, Abs format (unit mm)*
G04 Created by KiCad (PCBNEW (5.1.4)-1) date 2020-02-07 15:18:06*
%MOMM*%
%LPD*%
G04 APERTURE LIST*
%ADD10R,0.450000X0.500000*%
%ADD11R,0.850000X0.900000*%
%ADD12R,1.261200X0.550800*%
%ADD13R,1.392000X1.392000*%
%ADD14C,1.392000*%
%ADD15R,1.800000X1.800000*%
%ADD16C,1.800000*%
%ADD17R,1.117600X1.600200*%
%ADD18R,0.900000X1.000000*%
%ADD19R,1.700000X0.550000*%
%ADD20R,6.070000X6.070000*%
%ADD21R,1.820000X1.160000*%
%ADD22R,2.500000X1.200000*%
%ADD23R,1.730000X0.970000*%
%ADD24C,5.000000*%
%ADD25C,0.800000*%
%ADD26C,0.500000*%
%ADD27C,0.250000*%
%ADD28C,1.000000*%
%ADD29C,0.750000*%
%ADD30C,0.350000*%
%ADD31C,0.400000*%
%ADD32C,0.254000*%
G04 APERTURE END LIST*
D10*
X141235000Y-59542000D03*
D11*
X140335000Y-59182000D03*
X142995000Y-59202000D03*
D10*
X142095000Y-59542000D03*
D12*
X132170002Y-63819999D03*
X132170002Y-64770000D03*
X132170002Y-65720001D03*
X134620000Y-65720001D03*
X134620000Y-64770000D03*
X134620000Y-63819999D03*
D13*
X134472700Y-42633900D03*
D14*
X121932700Y-42633900D03*
D10*
X115210000Y-59547400D03*
D11*
X116110000Y-59207400D03*
X113450000Y-59187400D03*
D10*
X114350000Y-59547400D03*
D14*
X134472680Y-45476160D03*
D13*
X121899680Y-45476160D03*
D15*
X142240000Y-44450000D03*
D16*
X139700000Y-44450000D03*
D17*
X150622000Y-71628000D03*
X147828000Y-71628000D03*
X147828000Y-68834000D03*
X150622000Y-68834000D03*
D18*
X146685000Y-86370000D03*
X146685000Y-84770000D03*
X150785000Y-84770000D03*
X150785000Y-86370000D03*
D19*
X148735000Y-86995000D03*
D15*
X116840000Y-44450000D03*
D16*
X114300000Y-44450000D03*
D20*
X140335000Y-78105000D03*
X115675000Y-78105000D03*
X128005000Y-78105000D03*
D21*
X136906000Y-65942000D03*
X136906000Y-62992000D03*
D22*
X151550000Y-80565000D03*
X151550000Y-78065000D03*
X151550000Y-75565000D03*
X146050000Y-80565000D03*
X146050000Y-78065000D03*
X146050000Y-75565000D03*
D23*
X129540000Y-63817500D03*
X129540000Y-60857500D03*
X121920000Y-60857500D03*
X121920000Y-63817500D03*
X125730000Y-63817500D03*
X125730000Y-60857500D03*
D24*
X106426000Y-44196000D03*
X150114000Y-44196000D03*
D25*
X150799800Y-86360000D03*
X105727500Y-86360000D03*
D26*
X130492500Y-77787500D02*
X130175000Y-77470000D01*
D27*
X148735000Y-86995000D02*
X148735000Y-86470000D01*
X148735000Y-86470000D02*
X148635000Y-86370000D01*
X148635000Y-86370000D02*
X148600000Y-86370000D01*
D28*
X147320000Y-83185000D02*
X146059998Y-83185000D01*
X146059998Y-83185000D02*
X145425000Y-83819998D01*
X148319011Y-82185989D02*
X147320000Y-83185000D01*
X148082000Y-83185000D02*
X148479989Y-82787011D01*
D26*
X149225000Y-68416560D02*
X148836801Y-68804759D01*
D28*
X147320000Y-83185000D02*
X148082000Y-83185000D01*
X136906000Y-62992000D02*
X136652000Y-62992000D01*
D26*
X148836801Y-69349199D02*
X149352000Y-68834000D01*
X148836801Y-68804759D02*
X148836801Y-69349199D01*
D28*
X148479989Y-82787011D02*
X148479989Y-73803989D01*
D29*
X148961801Y-69327459D02*
X148961801Y-69349199D01*
X149352000Y-68834000D02*
X149352000Y-68937260D01*
X149352000Y-68937260D02*
X148961801Y-69327459D01*
D26*
X148836801Y-73447177D02*
X148479989Y-73803989D01*
X148836801Y-69349199D02*
X148836801Y-73447177D01*
D28*
X148479989Y-73803989D02*
X148479989Y-73295989D01*
D29*
X136779000Y-62865000D02*
X136906000Y-62992000D01*
X133633997Y-62865000D02*
X136779000Y-62865000D01*
X133375603Y-63123394D02*
X133633997Y-62865000D01*
X133375603Y-64555400D02*
X133375603Y-63123394D01*
X132170002Y-64770000D02*
X133161003Y-64770000D01*
X133161003Y-64770000D02*
X133375603Y-64555400D01*
D28*
X149225000Y-67871483D02*
X149225000Y-68416560D01*
X149225000Y-68810260D02*
X149263611Y-68848871D01*
X149225000Y-67871483D02*
X149225000Y-68810260D01*
X149086801Y-68554759D02*
X149086801Y-68968199D01*
X149225000Y-68416560D02*
X149086801Y-68554759D01*
X149086801Y-67733285D02*
X148944258Y-67590742D01*
X149086801Y-68554759D02*
X149086801Y-67733285D01*
X148944258Y-67590742D02*
X149225000Y-67871483D01*
X149086801Y-67806801D02*
X149363199Y-68083199D01*
X149086801Y-67733285D02*
X149086801Y-67806801D01*
X149363199Y-68672061D02*
X149225000Y-68810260D01*
X149363199Y-68083199D02*
X149363199Y-68672061D01*
X149086801Y-68968199D02*
X149086801Y-69025682D01*
X149363199Y-68691801D02*
X149086801Y-68968199D01*
X149363199Y-68083199D02*
X149363199Y-68691801D01*
X137029000Y-63115000D02*
X136906000Y-62992000D01*
X141351000Y-65405000D02*
X142113000Y-65405000D01*
X142113000Y-65405000D02*
X146758517Y-65405000D01*
X137541000Y-63627000D02*
X136906000Y-62992000D01*
X139319000Y-63627000D02*
X137541000Y-63627000D01*
X141097000Y-65405000D02*
X139319000Y-63627000D01*
X142113000Y-65405000D02*
X141097000Y-65405000D01*
X149363199Y-68009681D02*
X149363199Y-68083199D01*
X148245759Y-66892241D02*
X149363199Y-68009681D01*
X148245759Y-66892241D02*
X148944258Y-67590742D01*
X146758517Y-65405000D02*
X148245759Y-66892241D01*
X150795000Y-86360000D02*
X150785000Y-86370000D01*
X148600000Y-86370000D02*
X150785000Y-86370000D01*
X147330000Y-86370000D02*
X148600000Y-86370000D01*
X128005000Y-82285000D02*
X128005000Y-78105000D01*
X128905000Y-83185000D02*
X128005000Y-82285000D01*
X146059998Y-83185000D02*
X128905000Y-83185000D01*
X145425000Y-85735000D02*
X146060000Y-86370000D01*
X146060000Y-86370000D02*
X147330000Y-86370000D01*
X145425000Y-83819998D02*
X145425000Y-85735000D01*
X138430000Y-45720000D02*
X139700000Y-44450000D01*
X134493000Y-45720000D02*
X138430000Y-45720000D01*
X121920000Y-42545000D02*
X115684998Y-42545000D01*
X114300000Y-44450000D02*
X114300000Y-43180000D01*
X114300000Y-43180000D02*
X114935000Y-42545000D01*
X114935000Y-42545000D02*
X115684998Y-42545000D01*
D26*
X114575000Y-57785000D02*
X114825000Y-57785000D01*
X114289999Y-57499999D02*
X112680001Y-57499999D01*
X114575000Y-57785000D02*
X114289999Y-57499999D01*
X112680001Y-57499999D02*
X117189999Y-57499999D01*
X117189999Y-57499999D02*
X117475000Y-57785000D01*
D28*
X152400000Y-70485000D02*
X152400000Y-71120000D01*
X152400000Y-71120000D02*
X152400000Y-71755000D01*
D26*
X134620000Y-64770000D02*
X135404000Y-64770000D01*
D28*
X151130000Y-75565000D02*
X151130000Y-80565000D01*
X151130000Y-80565000D02*
X151130000Y-81915000D01*
X151130000Y-81915000D02*
X151130000Y-74295000D01*
X151550000Y-80565000D02*
X151550000Y-75565000D01*
X151550000Y-75565000D02*
X151550000Y-74256000D01*
X151550000Y-74256000D02*
X152146000Y-74852000D01*
X152146000Y-74852000D02*
X152146000Y-81788000D01*
X151550000Y-81192000D02*
X151550000Y-75272000D01*
X152146000Y-81788000D02*
X151550000Y-81192000D01*
X151550000Y-75272000D02*
X152146000Y-74676000D01*
X152146000Y-74676000D02*
X152654000Y-74676000D01*
X152654000Y-74676000D02*
X152654000Y-73660000D01*
X152654000Y-73660000D02*
X152654000Y-82804000D01*
D26*
X136576000Y-65942000D02*
X136906000Y-65942000D01*
X135404000Y-64770000D02*
X136576000Y-65942000D01*
X114350000Y-58010000D02*
X114575000Y-57785000D01*
D27*
X139649999Y-59957001D02*
X139128998Y-59436000D01*
X141020001Y-59957001D02*
X139649999Y-59957001D01*
X141235000Y-59542000D02*
X141235000Y-59742002D01*
X141235000Y-59742002D02*
X141020001Y-59957001D01*
D26*
X140942012Y-60259990D02*
X139989952Y-60259990D01*
X141235000Y-59542000D02*
X141235000Y-59967002D01*
X141235000Y-59967002D02*
X140942012Y-60259990D01*
X139989952Y-60259990D02*
X139811963Y-60082001D01*
D30*
X139774999Y-60082001D02*
X139128998Y-59436000D01*
X139811963Y-60082001D02*
X139774999Y-60082001D01*
D26*
X139459999Y-59767001D02*
X139459999Y-59781223D01*
X139128998Y-59436000D02*
X139459999Y-59767001D01*
X139114776Y-59436000D02*
X138430000Y-58751224D01*
X139128998Y-59436000D02*
X139114776Y-59436000D01*
D31*
X139459999Y-59767001D02*
X139774999Y-60082001D01*
D26*
X114350000Y-59005000D02*
X114935000Y-58420000D01*
X114350000Y-59005000D02*
X114350000Y-58010000D01*
X114350000Y-59105000D02*
X114350000Y-59005000D01*
X114350000Y-59547400D02*
X114350000Y-59105000D01*
D28*
X146685000Y-84770000D02*
X148905000Y-84770000D01*
X148905000Y-84770000D02*
X149540000Y-84770000D01*
X149540000Y-84770000D02*
X150785000Y-84770000D01*
D26*
X149429999Y-84659999D02*
X149540000Y-84770000D01*
X149613199Y-84476799D02*
X149429999Y-84659999D01*
X149852801Y-69603199D02*
X150622000Y-68834000D01*
X149852801Y-69617597D02*
X149613199Y-69857199D01*
X149852801Y-69603199D02*
X149852801Y-69617597D01*
X149613199Y-69857199D02*
X149613199Y-84476799D01*
X129542499Y-63819999D02*
X129540000Y-63817500D01*
X132170002Y-63819999D02*
X129542499Y-63819999D01*
D27*
X128905000Y-60960000D02*
X130180002Y-60960000D01*
D26*
X142995000Y-59202000D02*
X142995000Y-59937000D01*
X142494000Y-60452000D02*
X142494000Y-60438000D01*
X142494000Y-60438000D02*
X142741000Y-60191000D01*
X142741000Y-60191000D02*
X142995000Y-59937000D01*
X120396000Y-59944000D02*
X116459000Y-59944000D01*
X120650000Y-59690000D02*
X120396000Y-59944000D01*
X123190000Y-59690000D02*
X120650000Y-59690000D01*
X124142500Y-58737500D02*
X123190000Y-59690000D01*
X127317500Y-58737500D02*
X124142500Y-58737500D01*
X129540000Y-60960000D02*
X127317500Y-58737500D01*
X142995000Y-59937000D02*
X141972000Y-60960000D01*
X141972000Y-60960000D02*
X139648814Y-60960000D01*
X116459000Y-59944000D02*
X116110000Y-59595000D01*
X139648814Y-60960000D02*
X138632813Y-59944000D01*
X138632813Y-59944000D02*
X132461000Y-59944000D01*
X132461000Y-59944000D02*
X131445000Y-60960000D01*
X116110000Y-59595000D02*
X116110000Y-59207400D01*
X131445000Y-60960000D02*
X129540000Y-60960000D01*
X133886004Y-65720001D02*
X132931004Y-66675000D01*
X132931004Y-66675000D02*
X130810000Y-66675000D01*
X134620000Y-65720001D02*
X133886004Y-65720001D01*
X129818402Y-65683402D02*
X130810000Y-66675000D01*
X123285000Y-63920000D02*
X121920000Y-63920000D01*
X127162500Y-64932500D02*
X127913402Y-65683402D01*
X124297500Y-64932500D02*
X127162500Y-64932500D01*
X127913402Y-65683402D02*
X129818402Y-65683402D01*
X124297500Y-64932500D02*
X123285000Y-63920000D01*
X117475000Y-60960000D02*
X118110000Y-60960000D01*
X117094000Y-60960000D02*
X117475000Y-60960000D01*
X116660000Y-60960000D02*
X117094000Y-60960000D01*
X116078000Y-60960000D02*
X117094000Y-60960000D01*
X115210000Y-60092000D02*
X116078000Y-60960000D01*
X115210000Y-59590000D02*
X115210000Y-60092000D01*
X144018000Y-59182000D02*
X144018000Y-58781064D01*
X144018000Y-58539998D02*
X144018000Y-59182000D01*
X143780001Y-58301999D02*
X144018000Y-58539998D01*
X142095000Y-58565000D02*
X142358001Y-58301999D01*
X142095000Y-58565000D02*
X142095000Y-59542000D01*
X142358001Y-58301999D02*
X143780001Y-58301999D01*
X123569998Y-60960000D02*
X117475000Y-60960000D01*
X124014999Y-60135001D02*
X124014999Y-60514999D01*
X124460000Y-59690000D02*
X124014999Y-60135001D01*
X127000000Y-59690000D02*
X124460000Y-59690000D01*
X127635000Y-60325000D02*
X127000000Y-59690000D01*
X128014490Y-61974490D02*
X127635000Y-61595000D01*
X131700510Y-61974490D02*
X128014490Y-61974490D01*
X144018000Y-59182000D02*
X144018000Y-60198000D01*
X127635000Y-61595000D02*
X127635000Y-60325000D01*
X144018000Y-60198000D02*
X142494000Y-61722000D01*
X142494000Y-61722000D02*
X139192000Y-61722000D01*
X124014999Y-60514999D02*
X123569998Y-60960000D01*
X139192000Y-61722000D02*
X138303000Y-60833000D01*
X138303000Y-60833000D02*
X132842000Y-60833000D01*
X132842000Y-60833000D02*
X131700510Y-61974490D01*
X125730000Y-60960000D02*
X125730000Y-61595000D01*
X119508000Y-61850000D02*
X120524000Y-61850000D01*
X119508000Y-61850000D02*
X120016000Y-61850000D01*
X125730000Y-61595000D02*
X125730000Y-61976000D01*
X125730000Y-61976000D02*
X125730000Y-62230000D01*
X125476000Y-62230000D02*
X125730000Y-61976000D01*
X120524000Y-61850000D02*
X120904000Y-62230000D01*
X115950000Y-61850000D02*
X116460000Y-61850000D01*
X116460000Y-61850000D02*
X119508000Y-61850000D01*
X120904000Y-62230000D02*
X125222000Y-62230000D01*
X125222000Y-62230000D02*
X125476000Y-62230000D01*
X125222000Y-62230000D02*
X125730000Y-62230000D01*
X115324998Y-61850000D02*
X113450000Y-59975002D01*
X116460000Y-61850000D02*
X115324998Y-61850000D01*
X144907000Y-58801000D02*
X144907000Y-58680101D01*
X141338500Y-58153500D02*
X141656000Y-57836000D01*
X140675010Y-58841990D02*
X140335000Y-59182000D01*
X140335000Y-59157000D02*
X140335000Y-59182000D01*
X141656000Y-57836000D02*
X140335000Y-59157000D01*
D31*
X141840011Y-57651989D02*
X141656000Y-57836000D01*
D26*
X144907000Y-58801000D02*
X144907000Y-58293000D01*
D31*
X144265989Y-57651989D02*
X141840011Y-57651989D01*
D26*
X144907000Y-58293000D02*
X144526000Y-57912000D01*
X144526000Y-57912000D02*
X144399000Y-57785000D01*
D31*
X144399000Y-57785000D02*
X144265989Y-57651989D01*
D26*
X125984000Y-62230000D02*
X125730000Y-61976000D01*
X126365000Y-62230000D02*
X125984000Y-62230000D01*
X125222000Y-62230000D02*
X126365000Y-62230000D01*
X113450000Y-59187400D02*
X113450000Y-59975002D01*
X144907000Y-60579000D02*
X144907000Y-58801000D01*
X143002000Y-62484000D02*
X144907000Y-60579000D01*
X138684000Y-62484000D02*
X143002000Y-62484000D01*
X126365000Y-62230000D02*
X126746000Y-62230000D01*
X126746000Y-62230000D02*
X127190500Y-62674500D01*
X127190500Y-62674500D02*
X132270500Y-62674500D01*
X132270500Y-62674500D02*
X133159500Y-61785500D01*
X133159500Y-61785500D02*
X137985500Y-61785500D01*
X137985500Y-61785500D02*
X138684000Y-62484000D01*
X126365000Y-63920000D02*
X126745000Y-63920000D01*
X131039402Y-65720001D02*
X132170002Y-65720001D01*
X130216401Y-64897000D02*
X131039402Y-65720001D01*
X128397000Y-64897000D02*
X130216401Y-64897000D01*
X127420000Y-63920000D02*
X128397000Y-64897000D01*
X125730000Y-63920000D02*
X127420000Y-63920000D01*
D29*
X147828000Y-68834000D02*
X147828000Y-71628000D01*
D26*
X147828000Y-67818000D02*
X147828000Y-68834000D01*
X146812000Y-66802000D02*
X147828000Y-67818000D01*
X140716000Y-66802000D02*
X146812000Y-66802000D01*
X138557000Y-64643000D02*
X140716000Y-66802000D01*
X134620000Y-63819999D02*
X135443962Y-63819999D01*
X135443962Y-63819999D02*
X135887982Y-64264018D01*
X136395982Y-64264018D02*
X136398000Y-64262000D01*
X136398000Y-64262000D02*
X136779000Y-64643000D01*
X135887982Y-64264018D02*
X136395982Y-64264018D01*
X136779000Y-64643000D02*
X138557000Y-64643000D01*
D28*
X115675000Y-78105000D02*
X115675000Y-74070000D01*
X115675000Y-74070000D02*
X118625000Y-71120000D01*
X140335000Y-74295000D02*
X137160000Y-71120000D01*
X118625000Y-71120000D02*
X137160000Y-71120000D01*
X140335000Y-74295000D02*
X140335000Y-78105000D01*
X140375000Y-78065000D02*
X140335000Y-78105000D01*
X145415000Y-78065000D02*
X140375000Y-78065000D01*
D32*
G36*
X153010001Y-74365130D02*
G01*
X152924482Y-74339188D01*
X152800000Y-74326928D01*
X151835750Y-74330000D01*
X151677000Y-74488750D01*
X151677000Y-75438000D01*
X151697000Y-75438000D01*
X151697000Y-75692000D01*
X151677000Y-75692000D01*
X151677000Y-76641250D01*
X151835750Y-76800000D01*
X152800000Y-76803072D01*
X152924482Y-76790812D01*
X153010001Y-76764870D01*
X153010001Y-76865130D01*
X152924482Y-76839188D01*
X152800000Y-76826928D01*
X151835750Y-76830000D01*
X151677000Y-76988750D01*
X151677000Y-77938000D01*
X151697000Y-77938000D01*
X151697000Y-78192000D01*
X151677000Y-78192000D01*
X151677000Y-79141250D01*
X151835750Y-79300000D01*
X152800000Y-79303072D01*
X152924482Y-79290812D01*
X153010001Y-79264870D01*
X153010001Y-79365130D01*
X152924482Y-79339188D01*
X152800000Y-79326928D01*
X151835750Y-79330000D01*
X151677000Y-79488750D01*
X151677000Y-80438000D01*
X151697000Y-80438000D01*
X151697000Y-80692000D01*
X151677000Y-80692000D01*
X151677000Y-81641250D01*
X151835750Y-81800000D01*
X152800000Y-81803072D01*
X152924482Y-81790812D01*
X153010001Y-81764870D01*
X153010001Y-87597711D01*
X152971091Y-87994545D01*
X152865220Y-88345206D01*
X152693257Y-88668623D01*
X152461748Y-88952482D01*
X152179514Y-89185965D01*
X151857304Y-89360184D01*
X151507385Y-89468502D01*
X151112557Y-89510000D01*
X105442279Y-89510000D01*
X105045455Y-89471091D01*
X104694794Y-89365220D01*
X104371377Y-89193257D01*
X104087518Y-88961748D01*
X103854035Y-88679514D01*
X103679816Y-88357304D01*
X103571498Y-88007385D01*
X103530000Y-87612557D01*
X103530000Y-75070000D01*
X112001928Y-75070000D01*
X112001928Y-81140000D01*
X112014188Y-81264482D01*
X112050498Y-81384180D01*
X112109463Y-81494494D01*
X112188815Y-81591185D01*
X112285506Y-81670537D01*
X112395820Y-81729502D01*
X112515518Y-81765812D01*
X112640000Y-81778072D01*
X118710000Y-81778072D01*
X118834482Y-81765812D01*
X118954180Y-81729502D01*
X119064494Y-81670537D01*
X119161185Y-81591185D01*
X119240537Y-81494494D01*
X119299502Y-81384180D01*
X119335812Y-81264482D01*
X119348072Y-81140000D01*
X119348072Y-75070000D01*
X119335812Y-74945518D01*
X119299502Y-74825820D01*
X119240537Y-74715506D01*
X119161185Y-74618815D01*
X119064494Y-74539463D01*
X118954180Y-74480498D01*
X118834482Y-74444188D01*
X118710000Y-74431928D01*
X116918203Y-74431928D01*
X119095132Y-72255000D01*
X136689869Y-72255000D01*
X138866796Y-74431928D01*
X137300000Y-74431928D01*
X137175518Y-74444188D01*
X137055820Y-74480498D01*
X136945506Y-74539463D01*
X136848815Y-74618815D01*
X136769463Y-74715506D01*
X136710498Y-74825820D01*
X136674188Y-74945518D01*
X136661928Y-75070000D01*
X136661928Y-81140000D01*
X136674188Y-81264482D01*
X136710498Y-81384180D01*
X136769463Y-81494494D01*
X136848815Y-81591185D01*
X136945506Y-81670537D01*
X137055820Y-81729502D01*
X137175518Y-81765812D01*
X137300000Y-81778072D01*
X143370000Y-81778072D01*
X143494482Y-81765812D01*
X143614180Y-81729502D01*
X143724494Y-81670537D01*
X143821185Y-81591185D01*
X143900537Y-81494494D01*
X143959502Y-81384180D01*
X143995812Y-81264482D01*
X144008072Y-81140000D01*
X144008072Y-79200000D01*
X144453856Y-79200000D01*
X144555820Y-79254502D01*
X144675518Y-79290812D01*
X144800000Y-79303072D01*
X147300000Y-79303072D01*
X147344989Y-79298641D01*
X147344989Y-79331359D01*
X147300000Y-79326928D01*
X144800000Y-79326928D01*
X144675518Y-79339188D01*
X144555820Y-79375498D01*
X144445506Y-79434463D01*
X144348815Y-79513815D01*
X144269463Y-79610506D01*
X144210498Y-79720820D01*
X144174188Y-79840518D01*
X144161928Y-79965000D01*
X144161928Y-81165000D01*
X144174188Y-81289482D01*
X144210498Y-81409180D01*
X144269463Y-81519494D01*
X144348815Y-81616185D01*
X144445506Y-81695537D01*
X144555820Y-81754502D01*
X144675518Y-81790812D01*
X144800000Y-81803072D01*
X147096796Y-81803072D01*
X146849869Y-82050000D01*
X146115750Y-82050000D01*
X146059998Y-82044509D01*
X146004246Y-82050000D01*
X129375132Y-82050000D01*
X129140000Y-81814869D01*
X129140000Y-81778072D01*
X131040000Y-81778072D01*
X131164482Y-81765812D01*
X131284180Y-81729502D01*
X131394494Y-81670537D01*
X131491185Y-81591185D01*
X131570537Y-81494494D01*
X131629502Y-81384180D01*
X131665812Y-81264482D01*
X131678072Y-81140000D01*
X131678072Y-75070000D01*
X131665812Y-74945518D01*
X131629502Y-74825820D01*
X131570537Y-74715506D01*
X131491185Y-74618815D01*
X131394494Y-74539463D01*
X131284180Y-74480498D01*
X131164482Y-74444188D01*
X131040000Y-74431928D01*
X124970000Y-74431928D01*
X124845518Y-74444188D01*
X124725820Y-74480498D01*
X124615506Y-74539463D01*
X124518815Y-74618815D01*
X124439463Y-74715506D01*
X124380498Y-74825820D01*
X124344188Y-74945518D01*
X124331928Y-75070000D01*
X124331928Y-81140000D01*
X124344188Y-81264482D01*
X124380498Y-81384180D01*
X124439463Y-81494494D01*
X124518815Y-81591185D01*
X124615506Y-81670537D01*
X124725820Y-81729502D01*
X124845518Y-81765812D01*
X124970000Y-81778072D01*
X126870000Y-81778072D01*
X126870000Y-82229248D01*
X126864509Y-82285000D01*
X126870000Y-82340751D01*
X126886423Y-82507498D01*
X126951324Y-82721446D01*
X127056716Y-82918623D01*
X127198551Y-83091449D01*
X127241864Y-83126995D01*
X128063008Y-83948140D01*
X128098551Y-83991449D01*
X128271377Y-84133284D01*
X128468553Y-84238676D01*
X128632705Y-84288471D01*
X128682500Y-84303577D01*
X128703493Y-84305644D01*
X128849248Y-84320000D01*
X128849255Y-84320000D01*
X128904999Y-84325490D01*
X128960743Y-84320000D01*
X144290000Y-84320000D01*
X144290001Y-85679239D01*
X144284509Y-85735000D01*
X144306423Y-85957498D01*
X144371324Y-86171446D01*
X144397819Y-86221014D01*
X144476717Y-86368623D01*
X144618552Y-86541449D01*
X144661860Y-86576991D01*
X145218008Y-87133140D01*
X145253551Y-87176449D01*
X145418771Y-87312042D01*
X145426377Y-87318284D01*
X145623553Y-87423676D01*
X145837501Y-87488577D01*
X146060000Y-87510491D01*
X146115752Y-87505000D01*
X146203808Y-87505000D01*
X146235000Y-87508072D01*
X147135000Y-87508072D01*
X147166192Y-87505000D01*
X147292713Y-87505000D01*
X147295498Y-87514180D01*
X147354463Y-87624494D01*
X147433815Y-87721185D01*
X147530506Y-87800537D01*
X147640820Y-87859502D01*
X147760518Y-87895812D01*
X147885000Y-87908072D01*
X149585000Y-87908072D01*
X149709482Y-87895812D01*
X149829180Y-87859502D01*
X149939494Y-87800537D01*
X150036185Y-87721185D01*
X150115537Y-87624494D01*
X150174502Y-87514180D01*
X150177287Y-87505000D01*
X150303808Y-87505000D01*
X150335000Y-87508072D01*
X150760439Y-87508072D01*
X150785000Y-87510491D01*
X150809561Y-87508072D01*
X151235000Y-87508072D01*
X151359482Y-87495812D01*
X151479180Y-87459502D01*
X151589494Y-87400537D01*
X151686185Y-87321185D01*
X151765537Y-87224494D01*
X151824502Y-87114180D01*
X151860812Y-86994482D01*
X151873072Y-86870000D01*
X151873072Y-86716022D01*
X151913577Y-86582499D01*
X151935491Y-86360001D01*
X151913577Y-86137502D01*
X151873072Y-86003978D01*
X151873072Y-85870000D01*
X151860812Y-85745518D01*
X151824502Y-85625820D01*
X151794665Y-85570000D01*
X151824502Y-85514180D01*
X151860812Y-85394482D01*
X151873072Y-85270000D01*
X151873072Y-85093060D01*
X151903577Y-84992499D01*
X151925491Y-84770000D01*
X151903577Y-84547501D01*
X151873072Y-84446940D01*
X151873072Y-84270000D01*
X151860812Y-84145518D01*
X151824502Y-84025820D01*
X151765537Y-83915506D01*
X151686185Y-83818815D01*
X151589494Y-83739463D01*
X151479180Y-83680498D01*
X151359482Y-83644188D01*
X151235000Y-83631928D01*
X150498199Y-83631928D01*
X150498199Y-81802441D01*
X151264250Y-81800000D01*
X151423000Y-81641250D01*
X151423000Y-80692000D01*
X151403000Y-80692000D01*
X151403000Y-80438000D01*
X151423000Y-80438000D01*
X151423000Y-79488750D01*
X151264250Y-79330000D01*
X150498199Y-79327559D01*
X150498199Y-79302441D01*
X151264250Y-79300000D01*
X151423000Y-79141250D01*
X151423000Y-78192000D01*
X151403000Y-78192000D01*
X151403000Y-77938000D01*
X151423000Y-77938000D01*
X151423000Y-76988750D01*
X151264250Y-76830000D01*
X150498199Y-76827559D01*
X150498199Y-76802441D01*
X151264250Y-76800000D01*
X151423000Y-76641250D01*
X151423000Y-75692000D01*
X151403000Y-75692000D01*
X151403000Y-75438000D01*
X151423000Y-75438000D01*
X151423000Y-74488750D01*
X151264250Y-74330000D01*
X150498199Y-74327559D01*
X150498199Y-71755000D01*
X150749000Y-71755000D01*
X150749000Y-72904350D01*
X150907750Y-73063100D01*
X151180800Y-73066172D01*
X151305282Y-73053912D01*
X151424980Y-73017602D01*
X151535294Y-72958637D01*
X151631985Y-72879285D01*
X151711337Y-72782594D01*
X151770302Y-72672280D01*
X151806612Y-72552582D01*
X151818872Y-72428100D01*
X151815800Y-71913750D01*
X151657050Y-71755000D01*
X150749000Y-71755000D01*
X150498199Y-71755000D01*
X150498199Y-71481000D01*
X150749000Y-71481000D01*
X150749000Y-71501000D01*
X151657050Y-71501000D01*
X151815800Y-71342250D01*
X151818872Y-70827900D01*
X151806612Y-70703418D01*
X151770302Y-70583720D01*
X151711337Y-70473406D01*
X151631985Y-70376715D01*
X151535294Y-70297363D01*
X151424980Y-70238398D01*
X151400592Y-70231000D01*
X151424980Y-70223602D01*
X151535294Y-70164637D01*
X151631985Y-70085285D01*
X151711337Y-69988594D01*
X151770302Y-69878280D01*
X151806612Y-69758582D01*
X151818872Y-69634100D01*
X151818872Y-68033900D01*
X151806612Y-67909418D01*
X151770302Y-67789720D01*
X151711337Y-67679406D01*
X151631985Y-67582715D01*
X151535294Y-67503363D01*
X151424980Y-67444398D01*
X151305282Y-67408088D01*
X151180800Y-67395828D01*
X150322050Y-67395828D01*
X150311483Y-67376058D01*
X150274941Y-67331532D01*
X150169648Y-67203232D01*
X150126339Y-67167689D01*
X150066987Y-67108337D01*
X150031449Y-67065034D01*
X149988145Y-67029495D01*
X149928784Y-66970134D01*
X149893250Y-66926836D01*
X149849951Y-66891302D01*
X149087751Y-66129102D01*
X149087747Y-66129097D01*
X147600508Y-64641859D01*
X147564966Y-64598551D01*
X147392140Y-64456716D01*
X147194964Y-64351324D01*
X146981016Y-64286423D01*
X146814269Y-64270000D01*
X146814268Y-64270000D01*
X146758517Y-64264509D01*
X146702765Y-64270000D01*
X141567133Y-64270000D01*
X140666132Y-63369000D01*
X142958531Y-63369000D01*
X143002000Y-63373281D01*
X143045469Y-63369000D01*
X143045477Y-63369000D01*
X143175490Y-63356195D01*
X143342313Y-63305589D01*
X143496059Y-63223411D01*
X143630817Y-63112817D01*
X143658534Y-63079044D01*
X145502050Y-61235529D01*
X145535817Y-61207817D01*
X145564134Y-61173314D01*
X145646411Y-61073059D01*
X145670275Y-61028412D01*
X145728589Y-60919313D01*
X145779195Y-60752490D01*
X145792000Y-60622477D01*
X145792000Y-60622469D01*
X145796281Y-60579000D01*
X145792000Y-60535531D01*
X145792000Y-58336465D01*
X145796281Y-58292999D01*
X145792000Y-58249533D01*
X145792000Y-58249523D01*
X145779195Y-58119510D01*
X145728589Y-57952687D01*
X145646411Y-57798941D01*
X145535817Y-57664183D01*
X145502044Y-57636466D01*
X144994046Y-57128468D01*
X144893059Y-57045590D01*
X144750384Y-56969329D01*
X144732135Y-56954353D01*
X144587076Y-56876817D01*
X144429678Y-56829071D01*
X144307008Y-56816989D01*
X144307007Y-56816989D01*
X144265989Y-56812949D01*
X144224971Y-56816989D01*
X141881029Y-56816989D01*
X141840011Y-56812949D01*
X141798992Y-56816989D01*
X141676322Y-56829071D01*
X141518924Y-56876817D01*
X141373865Y-56954353D01*
X141272660Y-57037410D01*
X141161940Y-57096590D01*
X141060953Y-57179468D01*
X140146494Y-58093928D01*
X139910000Y-58093928D01*
X139785518Y-58106188D01*
X139665820Y-58142498D01*
X139555506Y-58201463D01*
X139458815Y-58280815D01*
X139379463Y-58377506D01*
X139320498Y-58487820D01*
X139284188Y-58607518D01*
X139271928Y-58732000D01*
X139271928Y-59327731D01*
X139261630Y-59315183D01*
X139126872Y-59204589D01*
X138973126Y-59122411D01*
X138806303Y-59071805D01*
X138676290Y-59059000D01*
X138676282Y-59059000D01*
X138632813Y-59054719D01*
X138589347Y-59059000D01*
X132504469Y-59059000D01*
X132461000Y-59054719D01*
X132417531Y-59059000D01*
X132417523Y-59059000D01*
X132302306Y-59070348D01*
X132287509Y-59071805D01*
X132267701Y-59077814D01*
X132120687Y-59122411D01*
X131966941Y-59204589D01*
X131966939Y-59204590D01*
X131966940Y-59204590D01*
X131865953Y-59287468D01*
X131865951Y-59287470D01*
X131832183Y-59315183D01*
X131804470Y-59348951D01*
X131078422Y-60075000D01*
X130966001Y-60075000D01*
X130935537Y-60018006D01*
X130856185Y-59921315D01*
X130759494Y-59841963D01*
X130649180Y-59782998D01*
X130529482Y-59746688D01*
X130405000Y-59734428D01*
X129566007Y-59734428D01*
X127974034Y-58142456D01*
X127946317Y-58108683D01*
X127811559Y-57998089D01*
X127657813Y-57915911D01*
X127490990Y-57865305D01*
X127360977Y-57852500D01*
X127360969Y-57852500D01*
X127317500Y-57848219D01*
X127274031Y-57852500D01*
X124185965Y-57852500D01*
X124142499Y-57848219D01*
X124099033Y-57852500D01*
X124099023Y-57852500D01*
X123969010Y-57865305D01*
X123802187Y-57915911D01*
X123648441Y-57998089D01*
X123648439Y-57998090D01*
X123648440Y-57998090D01*
X123547453Y-58080968D01*
X123547451Y-58080970D01*
X123513683Y-58108683D01*
X123485970Y-58142451D01*
X122823422Y-58805000D01*
X120693465Y-58805000D01*
X120649999Y-58800719D01*
X120606533Y-58805000D01*
X120606523Y-58805000D01*
X120476510Y-58817805D01*
X120309687Y-58868411D01*
X120155941Y-58950589D01*
X120023843Y-59059000D01*
X117173072Y-59059000D01*
X117173072Y-58757400D01*
X117160812Y-58632918D01*
X117124502Y-58513220D01*
X117065537Y-58402906D01*
X116986185Y-58306215D01*
X116889494Y-58226863D01*
X116779180Y-58167898D01*
X116659482Y-58131588D01*
X116535000Y-58119328D01*
X115685000Y-58119328D01*
X115560518Y-58131588D01*
X115440820Y-58167898D01*
X115330506Y-58226863D01*
X115233815Y-58306215D01*
X115154463Y-58402906D01*
X115095498Y-58513220D01*
X115059188Y-58632918D01*
X115056587Y-58659328D01*
X114985000Y-58659328D01*
X114860518Y-58671588D01*
X114779411Y-58696192D01*
X114716932Y-58675314D01*
X114606750Y-58662400D01*
X114513072Y-58756078D01*
X114513072Y-58737400D01*
X114500812Y-58612918D01*
X114464502Y-58493220D01*
X114405537Y-58382906D01*
X114326185Y-58286215D01*
X114229494Y-58206863D01*
X114119180Y-58147898D01*
X113999482Y-58111588D01*
X113875000Y-58099328D01*
X113025000Y-58099328D01*
X112900518Y-58111588D01*
X112780820Y-58147898D01*
X112670506Y-58206863D01*
X112573815Y-58286215D01*
X112494463Y-58382906D01*
X112435498Y-58493220D01*
X112399188Y-58612918D01*
X112386928Y-58737400D01*
X112386928Y-59637400D01*
X112399188Y-59761882D01*
X112435498Y-59881580D01*
X112494463Y-59991894D01*
X112571645Y-60085940D01*
X112577805Y-60148492D01*
X112628412Y-60315315D01*
X112710590Y-60469061D01*
X112793468Y-60570048D01*
X112793471Y-60570051D01*
X112821184Y-60603819D01*
X112854951Y-60631531D01*
X114668468Y-62445049D01*
X114696181Y-62478817D01*
X114729949Y-62506530D01*
X114729951Y-62506532D01*
X114830939Y-62589411D01*
X114984684Y-62671589D01*
X115151508Y-62722195D01*
X115281521Y-62735000D01*
X115281529Y-62735000D01*
X115324998Y-62739281D01*
X115368467Y-62735000D01*
X120157422Y-62735000D01*
X120247466Y-62825044D01*
X120275183Y-62858817D01*
X120409941Y-62969411D01*
X120502588Y-63018931D01*
X120465498Y-63088320D01*
X120429188Y-63208018D01*
X120416928Y-63332500D01*
X120416928Y-64302500D01*
X120429188Y-64426982D01*
X120465498Y-64546680D01*
X120524463Y-64656994D01*
X120603815Y-64753685D01*
X120700506Y-64833037D01*
X120810820Y-64892002D01*
X120930518Y-64928312D01*
X121055000Y-64940572D01*
X122785000Y-64940572D01*
X122909482Y-64928312D01*
X123010953Y-64897531D01*
X123640970Y-65527549D01*
X123668683Y-65561317D01*
X123702451Y-65589030D01*
X123702453Y-65589032D01*
X123773952Y-65647710D01*
X123803441Y-65671911D01*
X123957187Y-65754089D01*
X124124010Y-65804695D01*
X124254023Y-65817500D01*
X124254033Y-65817500D01*
X124297499Y-65821781D01*
X124340965Y-65817500D01*
X126795922Y-65817500D01*
X127256872Y-66278451D01*
X127284585Y-66312219D01*
X127318353Y-66339932D01*
X127318355Y-66339934D01*
X127334622Y-66353284D01*
X127419343Y-66422813D01*
X127573089Y-66504991D01*
X127739912Y-66555597D01*
X127869925Y-66568402D01*
X127869933Y-66568402D01*
X127913402Y-66572683D01*
X127956871Y-66568402D01*
X129451824Y-66568402D01*
X130153470Y-67270049D01*
X130181183Y-67303817D01*
X130214951Y-67331530D01*
X130214953Y-67331532D01*
X130259687Y-67368244D01*
X130315941Y-67414411D01*
X130469687Y-67496589D01*
X130636510Y-67547195D01*
X130766523Y-67560000D01*
X130766533Y-67560000D01*
X130809999Y-67564281D01*
X130853465Y-67560000D01*
X132887538Y-67560000D01*
X132931004Y-67564281D01*
X132974473Y-67560000D01*
X132974481Y-67560000D01*
X133104494Y-67547195D01*
X133271317Y-67496589D01*
X133425063Y-67414411D01*
X133559821Y-67303817D01*
X133587538Y-67270045D01*
X134224110Y-66633473D01*
X135250600Y-66633473D01*
X135367770Y-66621933D01*
X135370188Y-66646482D01*
X135406498Y-66766180D01*
X135465463Y-66876494D01*
X135544815Y-66973185D01*
X135641506Y-67052537D01*
X135751820Y-67111502D01*
X135871518Y-67147812D01*
X135996000Y-67160072D01*
X136620250Y-67157000D01*
X136779000Y-66998250D01*
X136779000Y-66069000D01*
X137033000Y-66069000D01*
X137033000Y-66998250D01*
X137191750Y-67157000D01*
X137816000Y-67160072D01*
X137940482Y-67147812D01*
X138060180Y-67111502D01*
X138170494Y-67052537D01*
X138267185Y-66973185D01*
X138346537Y-66876494D01*
X138405502Y-66766180D01*
X138441812Y-66646482D01*
X138454072Y-66522000D01*
X138451000Y-66227750D01*
X138292250Y-66069000D01*
X137033000Y-66069000D01*
X136779000Y-66069000D01*
X136759000Y-66069000D01*
X136759000Y-65815000D01*
X136779000Y-65815000D01*
X136779000Y-65795000D01*
X137033000Y-65795000D01*
X137033000Y-65815000D01*
X138292250Y-65815000D01*
X138384836Y-65722414D01*
X140059470Y-67397049D01*
X140087183Y-67430817D01*
X140120951Y-67458530D01*
X140120953Y-67458532D01*
X140175580Y-67503363D01*
X140221941Y-67541411D01*
X140375687Y-67623589D01*
X140542510Y-67674195D01*
X140672523Y-67687000D01*
X140672533Y-67687000D01*
X140715999Y-67691281D01*
X140759466Y-67687000D01*
X146445422Y-67687000D01*
X146649079Y-67890657D01*
X146643388Y-67909418D01*
X146631128Y-68033900D01*
X146631128Y-69634100D01*
X146643388Y-69758582D01*
X146679698Y-69878280D01*
X146738663Y-69988594D01*
X146818000Y-70085267D01*
X146818001Y-70376733D01*
X146738663Y-70473406D01*
X146679698Y-70583720D01*
X146643388Y-70703418D01*
X146631128Y-70827900D01*
X146631128Y-72428100D01*
X146643388Y-72552582D01*
X146679698Y-72672280D01*
X146738663Y-72782594D01*
X146818015Y-72879285D01*
X146914706Y-72958637D01*
X147025020Y-73017602D01*
X147144718Y-73053912D01*
X147269200Y-73066172D01*
X147363632Y-73066172D01*
X147361412Y-73073490D01*
X147344989Y-73240237D01*
X147344989Y-73859740D01*
X147344990Y-73859750D01*
X147344990Y-74331359D01*
X147300000Y-74326928D01*
X146335750Y-74330000D01*
X146177000Y-74488750D01*
X146177000Y-75438000D01*
X146197000Y-75438000D01*
X146197000Y-75692000D01*
X146177000Y-75692000D01*
X146177000Y-76641250D01*
X146335750Y-76800000D01*
X147300000Y-76803072D01*
X147344990Y-76798641D01*
X147344990Y-76831359D01*
X147300000Y-76826928D01*
X144800000Y-76826928D01*
X144675518Y-76839188D01*
X144555820Y-76875498D01*
X144453856Y-76930000D01*
X144008072Y-76930000D01*
X144008072Y-76165000D01*
X144161928Y-76165000D01*
X144174188Y-76289482D01*
X144210498Y-76409180D01*
X144269463Y-76519494D01*
X144348815Y-76616185D01*
X144445506Y-76695537D01*
X144555820Y-76754502D01*
X144675518Y-76790812D01*
X144800000Y-76803072D01*
X145764250Y-76800000D01*
X145923000Y-76641250D01*
X145923000Y-75692000D01*
X144323750Y-75692000D01*
X144165000Y-75850750D01*
X144161928Y-76165000D01*
X144008072Y-76165000D01*
X144008072Y-75070000D01*
X143997731Y-74965000D01*
X144161928Y-74965000D01*
X144165000Y-75279250D01*
X144323750Y-75438000D01*
X145923000Y-75438000D01*
X145923000Y-74488750D01*
X145764250Y-74330000D01*
X144800000Y-74326928D01*
X144675518Y-74339188D01*
X144555820Y-74375498D01*
X144445506Y-74434463D01*
X144348815Y-74513815D01*
X144269463Y-74610506D01*
X144210498Y-74720820D01*
X144174188Y-74840518D01*
X144161928Y-74965000D01*
X143997731Y-74965000D01*
X143995812Y-74945518D01*
X143959502Y-74825820D01*
X143900537Y-74715506D01*
X143821185Y-74618815D01*
X143724494Y-74539463D01*
X143614180Y-74480498D01*
X143494482Y-74444188D01*
X143370000Y-74431928D01*
X141470000Y-74431928D01*
X141470000Y-74350751D01*
X141475491Y-74294999D01*
X141453577Y-74072501D01*
X141388676Y-73858553D01*
X141359511Y-73803989D01*
X141283284Y-73661377D01*
X141141449Y-73488551D01*
X141098141Y-73453009D01*
X138001996Y-70356865D01*
X137966449Y-70313551D01*
X137793623Y-70171716D01*
X137596447Y-70066324D01*
X137382499Y-70001423D01*
X137215752Y-69985000D01*
X137215751Y-69985000D01*
X137160000Y-69979509D01*
X137104249Y-69985000D01*
X118680751Y-69985000D01*
X118624999Y-69979509D01*
X118402501Y-70001423D01*
X118188553Y-70066324D01*
X117991377Y-70171716D01*
X117818551Y-70313551D01*
X117783009Y-70356859D01*
X114911860Y-73228009D01*
X114868552Y-73263551D01*
X114726717Y-73436377D01*
X114698830Y-73488551D01*
X114621324Y-73633554D01*
X114556423Y-73847502D01*
X114534509Y-74070000D01*
X114540001Y-74125761D01*
X114540001Y-74431928D01*
X112640000Y-74431928D01*
X112515518Y-74444188D01*
X112395820Y-74480498D01*
X112285506Y-74539463D01*
X112188815Y-74618815D01*
X112109463Y-74715506D01*
X112050498Y-74825820D01*
X112014188Y-74945518D01*
X112001928Y-75070000D01*
X103530000Y-75070000D01*
X103530000Y-56769000D01*
X153010000Y-56769000D01*
X153010001Y-74365130D01*
X153010001Y-74365130D01*
G37*
X153010001Y-74365130D02*
X152924482Y-74339188D01*
X152800000Y-74326928D01*
X151835750Y-74330000D01*
X151677000Y-74488750D01*
X151677000Y-75438000D01*
X151697000Y-75438000D01*
X151697000Y-75692000D01*
X151677000Y-75692000D01*
X151677000Y-76641250D01*
X151835750Y-76800000D01*
X152800000Y-76803072D01*
X152924482Y-76790812D01*
X153010001Y-76764870D01*
X153010001Y-76865130D01*
X152924482Y-76839188D01*
X152800000Y-76826928D01*
X151835750Y-76830000D01*
X151677000Y-76988750D01*
X151677000Y-77938000D01*
X151697000Y-77938000D01*
X151697000Y-78192000D01*
X151677000Y-78192000D01*
X151677000Y-79141250D01*
X151835750Y-79300000D01*
X152800000Y-79303072D01*
X152924482Y-79290812D01*
X153010001Y-79264870D01*
X153010001Y-79365130D01*
X152924482Y-79339188D01*
X152800000Y-79326928D01*
X151835750Y-79330000D01*
X151677000Y-79488750D01*
X151677000Y-80438000D01*
X151697000Y-80438000D01*
X151697000Y-80692000D01*
X151677000Y-80692000D01*
X151677000Y-81641250D01*
X151835750Y-81800000D01*
X152800000Y-81803072D01*
X152924482Y-81790812D01*
X153010001Y-81764870D01*
X153010001Y-87597711D01*
X152971091Y-87994545D01*
X152865220Y-88345206D01*
X152693257Y-88668623D01*
X152461748Y-88952482D01*
X152179514Y-89185965D01*
X151857304Y-89360184D01*
X151507385Y-89468502D01*
X151112557Y-89510000D01*
X105442279Y-89510000D01*
X105045455Y-89471091D01*
X104694794Y-89365220D01*
X104371377Y-89193257D01*
X104087518Y-88961748D01*
X103854035Y-88679514D01*
X103679816Y-88357304D01*
X103571498Y-88007385D01*
X103530000Y-87612557D01*
X103530000Y-75070000D01*
X112001928Y-75070000D01*
X112001928Y-81140000D01*
X112014188Y-81264482D01*
X112050498Y-81384180D01*
X112109463Y-81494494D01*
X112188815Y-81591185D01*
X112285506Y-81670537D01*
X112395820Y-81729502D01*
X112515518Y-81765812D01*
X112640000Y-81778072D01*
X118710000Y-81778072D01*
X118834482Y-81765812D01*
X118954180Y-81729502D01*
X119064494Y-81670537D01*
X119161185Y-81591185D01*
X119240537Y-81494494D01*
X119299502Y-81384180D01*
X119335812Y-81264482D01*
X119348072Y-81140000D01*
X119348072Y-75070000D01*
X119335812Y-74945518D01*
X119299502Y-74825820D01*
X119240537Y-74715506D01*
X119161185Y-74618815D01*
X119064494Y-74539463D01*
X118954180Y-74480498D01*
X118834482Y-74444188D01*
X118710000Y-74431928D01*
X116918203Y-74431928D01*
X119095132Y-72255000D01*
X136689869Y-72255000D01*
X138866796Y-74431928D01*
X137300000Y-74431928D01*
X137175518Y-74444188D01*
X137055820Y-74480498D01*
X136945506Y-74539463D01*
X136848815Y-74618815D01*
X136769463Y-74715506D01*
X136710498Y-74825820D01*
X136674188Y-74945518D01*
X136661928Y-75070000D01*
X136661928Y-81140000D01*
X136674188Y-81264482D01*
X136710498Y-81384180D01*
X136769463Y-81494494D01*
X136848815Y-81591185D01*
X136945506Y-81670537D01*
X137055820Y-81729502D01*
X137175518Y-81765812D01*
X137300000Y-81778072D01*
X143370000Y-81778072D01*
X143494482Y-81765812D01*
X143614180Y-81729502D01*
X143724494Y-81670537D01*
X143821185Y-81591185D01*
X143900537Y-81494494D01*
X143959502Y-81384180D01*
X143995812Y-81264482D01*
X144008072Y-81140000D01*
X144008072Y-79200000D01*
X144453856Y-79200000D01*
X144555820Y-79254502D01*
X144675518Y-79290812D01*
X144800000Y-79303072D01*
X147300000Y-79303072D01*
X147344989Y-79298641D01*
X147344989Y-79331359D01*
X147300000Y-79326928D01*
X144800000Y-79326928D01*
X144675518Y-79339188D01*
X144555820Y-79375498D01*
X144445506Y-79434463D01*
X144348815Y-79513815D01*
X144269463Y-79610506D01*
X144210498Y-79720820D01*
X144174188Y-79840518D01*
X144161928Y-79965000D01*
X144161928Y-81165000D01*
X144174188Y-81289482D01*
X144210498Y-81409180D01*
X144269463Y-81519494D01*
X144348815Y-81616185D01*
X144445506Y-81695537D01*
X144555820Y-81754502D01*
X144675518Y-81790812D01*
X144800000Y-81803072D01*
X147096796Y-81803072D01*
X146849869Y-82050000D01*
X146115750Y-82050000D01*
X146059998Y-82044509D01*
X146004246Y-82050000D01*
X129375132Y-82050000D01*
X129140000Y-81814869D01*
X129140000Y-81778072D01*
X131040000Y-81778072D01*
X131164482Y-81765812D01*
X131284180Y-81729502D01*
X131394494Y-81670537D01*
X131491185Y-81591185D01*
X131570537Y-81494494D01*
X131629502Y-81384180D01*
X131665812Y-81264482D01*
X131678072Y-81140000D01*
X131678072Y-75070000D01*
X131665812Y-74945518D01*
X131629502Y-74825820D01*
X131570537Y-74715506D01*
X131491185Y-74618815D01*
X131394494Y-74539463D01*
X131284180Y-74480498D01*
X131164482Y-74444188D01*
X131040000Y-74431928D01*
X124970000Y-74431928D01*
X124845518Y-74444188D01*
X124725820Y-74480498D01*
X124615506Y-74539463D01*
X124518815Y-74618815D01*
X124439463Y-74715506D01*
X124380498Y-74825820D01*
X124344188Y-74945518D01*
X124331928Y-75070000D01*
X124331928Y-81140000D01*
X124344188Y-81264482D01*
X124380498Y-81384180D01*
X124439463Y-81494494D01*
X124518815Y-81591185D01*
X124615506Y-81670537D01*
X124725820Y-81729502D01*
X124845518Y-81765812D01*
X124970000Y-81778072D01*
X126870000Y-81778072D01*
X126870000Y-82229248D01*
X126864509Y-82285000D01*
X126870000Y-82340751D01*
X126886423Y-82507498D01*
X126951324Y-82721446D01*
X127056716Y-82918623D01*
X127198551Y-83091449D01*
X127241864Y-83126995D01*
X128063008Y-83948140D01*
X128098551Y-83991449D01*
X128271377Y-84133284D01*
X128468553Y-84238676D01*
X128632705Y-84288471D01*
X128682500Y-84303577D01*
X128703493Y-84305644D01*
X128849248Y-84320000D01*
X128849255Y-84320000D01*
X128904999Y-84325490D01*
X128960743Y-84320000D01*
X144290000Y-84320000D01*
X144290001Y-85679239D01*
X144284509Y-85735000D01*
X144306423Y-85957498D01*
X144371324Y-86171446D01*
X144397819Y-86221014D01*
X144476717Y-86368623D01*
X144618552Y-86541449D01*
X144661860Y-86576991D01*
X145218008Y-87133140D01*
X145253551Y-87176449D01*
X145418771Y-87312042D01*
X145426377Y-87318284D01*
X145623553Y-87423676D01*
X145837501Y-87488577D01*
X146060000Y-87510491D01*
X146115752Y-87505000D01*
X146203808Y-87505000D01*
X146235000Y-87508072D01*
X147135000Y-87508072D01*
X147166192Y-87505000D01*
X147292713Y-87505000D01*
X147295498Y-87514180D01*
X147354463Y-87624494D01*
X147433815Y-87721185D01*
X147530506Y-87800537D01*
X147640820Y-87859502D01*
X147760518Y-87895812D01*
X147885000Y-87908072D01*
X149585000Y-87908072D01*
X149709482Y-87895812D01*
X149829180Y-87859502D01*
X149939494Y-87800537D01*
X150036185Y-87721185D01*
X150115537Y-87624494D01*
X150174502Y-87514180D01*
X150177287Y-87505000D01*
X150303808Y-87505000D01*
X150335000Y-87508072D01*
X150760439Y-87508072D01*
X150785000Y-87510491D01*
X150809561Y-87508072D01*
X151235000Y-87508072D01*
X151359482Y-87495812D01*
X151479180Y-87459502D01*
X151589494Y-87400537D01*
X151686185Y-87321185D01*
X151765537Y-87224494D01*
X151824502Y-87114180D01*
X151860812Y-86994482D01*
X151873072Y-86870000D01*
X151873072Y-86716022D01*
X151913577Y-86582499D01*
X151935491Y-86360001D01*
X151913577Y-86137502D01*
X151873072Y-86003978D01*
X151873072Y-85870000D01*
X151860812Y-85745518D01*
X151824502Y-85625820D01*
X151794665Y-85570000D01*
X151824502Y-85514180D01*
X151860812Y-85394482D01*
X151873072Y-85270000D01*
X151873072Y-85093060D01*
X151903577Y-84992499D01*
X151925491Y-84770000D01*
X151903577Y-84547501D01*
X151873072Y-84446940D01*
X151873072Y-84270000D01*
X151860812Y-84145518D01*
X151824502Y-84025820D01*
X151765537Y-83915506D01*
X151686185Y-83818815D01*
X151589494Y-83739463D01*
X151479180Y-83680498D01*
X151359482Y-83644188D01*
X151235000Y-83631928D01*
X150498199Y-83631928D01*
X150498199Y-81802441D01*
X151264250Y-81800000D01*
X151423000Y-81641250D01*
X151423000Y-80692000D01*
X151403000Y-80692000D01*
X151403000Y-80438000D01*
X151423000Y-80438000D01*
X151423000Y-79488750D01*
X151264250Y-79330000D01*
X150498199Y-79327559D01*
X150498199Y-79302441D01*
X151264250Y-79300000D01*
X151423000Y-79141250D01*
X151423000Y-78192000D01*
X151403000Y-78192000D01*
X151403000Y-77938000D01*
X151423000Y-77938000D01*
X151423000Y-76988750D01*
X151264250Y-76830000D01*
X150498199Y-76827559D01*
X150498199Y-76802441D01*
X151264250Y-76800000D01*
X151423000Y-76641250D01*
X151423000Y-75692000D01*
X151403000Y-75692000D01*
X151403000Y-75438000D01*
X151423000Y-75438000D01*
X151423000Y-74488750D01*
X151264250Y-74330000D01*
X150498199Y-74327559D01*
X150498199Y-71755000D01*
X150749000Y-71755000D01*
X150749000Y-72904350D01*
X150907750Y-73063100D01*
X151180800Y-73066172D01*
X151305282Y-73053912D01*
X151424980Y-73017602D01*
X151535294Y-72958637D01*
X151631985Y-72879285D01*
X151711337Y-72782594D01*
X151770302Y-72672280D01*
X151806612Y-72552582D01*
X151818872Y-72428100D01*
X151815800Y-71913750D01*
X151657050Y-71755000D01*
X150749000Y-71755000D01*
X150498199Y-71755000D01*
X150498199Y-71481000D01*
X150749000Y-71481000D01*
X150749000Y-71501000D01*
X151657050Y-71501000D01*
X151815800Y-71342250D01*
X151818872Y-70827900D01*
X151806612Y-70703418D01*
X151770302Y-70583720D01*
X151711337Y-70473406D01*
X151631985Y-70376715D01*
X151535294Y-70297363D01*
X151424980Y-70238398D01*
X151400592Y-70231000D01*
X151424980Y-70223602D01*
X151535294Y-70164637D01*
X151631985Y-70085285D01*
X151711337Y-69988594D01*
X151770302Y-69878280D01*
X151806612Y-69758582D01*
X151818872Y-69634100D01*
X151818872Y-68033900D01*
X151806612Y-67909418D01*
X151770302Y-67789720D01*
X151711337Y-67679406D01*
X151631985Y-67582715D01*
X151535294Y-67503363D01*
X151424980Y-67444398D01*
X151305282Y-67408088D01*
X151180800Y-67395828D01*
X150322050Y-67395828D01*
X150311483Y-67376058D01*
X150274941Y-67331532D01*
X150169648Y-67203232D01*
X150126339Y-67167689D01*
X150066987Y-67108337D01*
X150031449Y-67065034D01*
X149988145Y-67029495D01*
X149928784Y-66970134D01*
X149893250Y-66926836D01*
X149849951Y-66891302D01*
X149087751Y-66129102D01*
X149087747Y-66129097D01*
X147600508Y-64641859D01*
X147564966Y-64598551D01*
X147392140Y-64456716D01*
X147194964Y-64351324D01*
X146981016Y-64286423D01*
X146814269Y-64270000D01*
X146814268Y-64270000D01*
X146758517Y-64264509D01*
X146702765Y-64270000D01*
X141567133Y-64270000D01*
X140666132Y-63369000D01*
X142958531Y-63369000D01*
X143002000Y-63373281D01*
X143045469Y-63369000D01*
X143045477Y-63369000D01*
X143175490Y-63356195D01*
X143342313Y-63305589D01*
X143496059Y-63223411D01*
X143630817Y-63112817D01*
X143658534Y-63079044D01*
X145502050Y-61235529D01*
X145535817Y-61207817D01*
X145564134Y-61173314D01*
X145646411Y-61073059D01*
X145670275Y-61028412D01*
X145728589Y-60919313D01*
X145779195Y-60752490D01*
X145792000Y-60622477D01*
X145792000Y-60622469D01*
X145796281Y-60579000D01*
X145792000Y-60535531D01*
X145792000Y-58336465D01*
X145796281Y-58292999D01*
X145792000Y-58249533D01*
X145792000Y-58249523D01*
X145779195Y-58119510D01*
X145728589Y-57952687D01*
X145646411Y-57798941D01*
X145535817Y-57664183D01*
X145502044Y-57636466D01*
X144994046Y-57128468D01*
X144893059Y-57045590D01*
X144750384Y-56969329D01*
X144732135Y-56954353D01*
X144587076Y-56876817D01*
X144429678Y-56829071D01*
X144307008Y-56816989D01*
X144307007Y-56816989D01*
X144265989Y-56812949D01*
X144224971Y-56816989D01*
X141881029Y-56816989D01*
X141840011Y-56812949D01*
X141798992Y-56816989D01*
X141676322Y-56829071D01*
X141518924Y-56876817D01*
X141373865Y-56954353D01*
X141272660Y-57037410D01*
X141161940Y-57096590D01*
X141060953Y-57179468D01*
X140146494Y-58093928D01*
X139910000Y-58093928D01*
X139785518Y-58106188D01*
X139665820Y-58142498D01*
X139555506Y-58201463D01*
X139458815Y-58280815D01*
X139379463Y-58377506D01*
X139320498Y-58487820D01*
X139284188Y-58607518D01*
X139271928Y-58732000D01*
X139271928Y-59327731D01*
X139261630Y-59315183D01*
X139126872Y-59204589D01*
X138973126Y-59122411D01*
X138806303Y-59071805D01*
X138676290Y-59059000D01*
X138676282Y-59059000D01*
X138632813Y-59054719D01*
X138589347Y-59059000D01*
X132504469Y-59059000D01*
X132461000Y-59054719D01*
X132417531Y-59059000D01*
X132417523Y-59059000D01*
X132302306Y-59070348D01*
X132287509Y-59071805D01*
X132267701Y-59077814D01*
X132120687Y-59122411D01*
X131966941Y-59204589D01*
X131966939Y-59204590D01*
X131966940Y-59204590D01*
X131865953Y-59287468D01*
X131865951Y-59287470D01*
X131832183Y-59315183D01*
X131804470Y-59348951D01*
X131078422Y-60075000D01*
X130966001Y-60075000D01*
X130935537Y-60018006D01*
X130856185Y-59921315D01*
X130759494Y-59841963D01*
X130649180Y-59782998D01*
X130529482Y-59746688D01*
X130405000Y-59734428D01*
X129566007Y-59734428D01*
X127974034Y-58142456D01*
X127946317Y-58108683D01*
X127811559Y-57998089D01*
X127657813Y-57915911D01*
X127490990Y-57865305D01*
X127360977Y-57852500D01*
X127360969Y-57852500D01*
X127317500Y-57848219D01*
X127274031Y-57852500D01*
X124185965Y-57852500D01*
X124142499Y-57848219D01*
X124099033Y-57852500D01*
X124099023Y-57852500D01*
X123969010Y-57865305D01*
X123802187Y-57915911D01*
X123648441Y-57998089D01*
X123648439Y-57998090D01*
X123648440Y-57998090D01*
X123547453Y-58080968D01*
X123547451Y-58080970D01*
X123513683Y-58108683D01*
X123485970Y-58142451D01*
X122823422Y-58805000D01*
X120693465Y-58805000D01*
X120649999Y-58800719D01*
X120606533Y-58805000D01*
X120606523Y-58805000D01*
X120476510Y-58817805D01*
X120309687Y-58868411D01*
X120155941Y-58950589D01*
X120023843Y-59059000D01*
X117173072Y-59059000D01*
X117173072Y-58757400D01*
X117160812Y-58632918D01*
X117124502Y-58513220D01*
X117065537Y-58402906D01*
X116986185Y-58306215D01*
X116889494Y-58226863D01*
X116779180Y-58167898D01*
X116659482Y-58131588D01*
X116535000Y-58119328D01*
X115685000Y-58119328D01*
X115560518Y-58131588D01*
X115440820Y-58167898D01*
X115330506Y-58226863D01*
X115233815Y-58306215D01*
X115154463Y-58402906D01*
X115095498Y-58513220D01*
X115059188Y-58632918D01*
X115056587Y-58659328D01*
X114985000Y-58659328D01*
X114860518Y-58671588D01*
X114779411Y-58696192D01*
X114716932Y-58675314D01*
X114606750Y-58662400D01*
X114513072Y-58756078D01*
X114513072Y-58737400D01*
X114500812Y-58612918D01*
X114464502Y-58493220D01*
X114405537Y-58382906D01*
X114326185Y-58286215D01*
X114229494Y-58206863D01*
X114119180Y-58147898D01*
X113999482Y-58111588D01*
X113875000Y-58099328D01*
X113025000Y-58099328D01*
X112900518Y-58111588D01*
X112780820Y-58147898D01*
X112670506Y-58206863D01*
X112573815Y-58286215D01*
X112494463Y-58382906D01*
X112435498Y-58493220D01*
X112399188Y-58612918D01*
X112386928Y-58737400D01*
X112386928Y-59637400D01*
X112399188Y-59761882D01*
X112435498Y-59881580D01*
X112494463Y-59991894D01*
X112571645Y-60085940D01*
X112577805Y-60148492D01*
X112628412Y-60315315D01*
X112710590Y-60469061D01*
X112793468Y-60570048D01*
X112793471Y-60570051D01*
X112821184Y-60603819D01*
X112854951Y-60631531D01*
X114668468Y-62445049D01*
X114696181Y-62478817D01*
X114729949Y-62506530D01*
X114729951Y-62506532D01*
X114830939Y-62589411D01*
X114984684Y-62671589D01*
X115151508Y-62722195D01*
X115281521Y-62735000D01*
X115281529Y-62735000D01*
X115324998Y-62739281D01*
X115368467Y-62735000D01*
X120157422Y-62735000D01*
X120247466Y-62825044D01*
X120275183Y-62858817D01*
X120409941Y-62969411D01*
X120502588Y-63018931D01*
X120465498Y-63088320D01*
X120429188Y-63208018D01*
X120416928Y-63332500D01*
X120416928Y-64302500D01*
X120429188Y-64426982D01*
X120465498Y-64546680D01*
X120524463Y-64656994D01*
X120603815Y-64753685D01*
X120700506Y-64833037D01*
X120810820Y-64892002D01*
X120930518Y-64928312D01*
X121055000Y-64940572D01*
X122785000Y-64940572D01*
X122909482Y-64928312D01*
X123010953Y-64897531D01*
X123640970Y-65527549D01*
X123668683Y-65561317D01*
X123702451Y-65589030D01*
X123702453Y-65589032D01*
X123773952Y-65647710D01*
X123803441Y-65671911D01*
X123957187Y-65754089D01*
X124124010Y-65804695D01*
X124254023Y-65817500D01*
X124254033Y-65817500D01*
X124297499Y-65821781D01*
X124340965Y-65817500D01*
X126795922Y-65817500D01*
X127256872Y-66278451D01*
X127284585Y-66312219D01*
X127318353Y-66339932D01*
X127318355Y-66339934D01*
X127334622Y-66353284D01*
X127419343Y-66422813D01*
X127573089Y-66504991D01*
X127739912Y-66555597D01*
X127869925Y-66568402D01*
X127869933Y-66568402D01*
X127913402Y-66572683D01*
X127956871Y-66568402D01*
X129451824Y-66568402D01*
X130153470Y-67270049D01*
X130181183Y-67303817D01*
X130214951Y-67331530D01*
X130214953Y-67331532D01*
X130259687Y-67368244D01*
X130315941Y-67414411D01*
X130469687Y-67496589D01*
X130636510Y-67547195D01*
X130766523Y-67560000D01*
X130766533Y-67560000D01*
X130809999Y-67564281D01*
X130853465Y-67560000D01*
X132887538Y-67560000D01*
X132931004Y-67564281D01*
X132974473Y-67560000D01*
X132974481Y-67560000D01*
X133104494Y-67547195D01*
X133271317Y-67496589D01*
X133425063Y-67414411D01*
X133559821Y-67303817D01*
X133587538Y-67270045D01*
X134224110Y-66633473D01*
X135250600Y-66633473D01*
X135367770Y-66621933D01*
X135370188Y-66646482D01*
X135406498Y-66766180D01*
X135465463Y-66876494D01*
X135544815Y-66973185D01*
X135641506Y-67052537D01*
X135751820Y-67111502D01*
X135871518Y-67147812D01*
X135996000Y-67160072D01*
X136620250Y-67157000D01*
X136779000Y-66998250D01*
X136779000Y-66069000D01*
X137033000Y-66069000D01*
X137033000Y-66998250D01*
X137191750Y-67157000D01*
X137816000Y-67160072D01*
X137940482Y-67147812D01*
X138060180Y-67111502D01*
X138170494Y-67052537D01*
X138267185Y-66973185D01*
X138346537Y-66876494D01*
X138405502Y-66766180D01*
X138441812Y-66646482D01*
X138454072Y-66522000D01*
X138451000Y-66227750D01*
X138292250Y-66069000D01*
X137033000Y-66069000D01*
X136779000Y-66069000D01*
X136759000Y-66069000D01*
X136759000Y-65815000D01*
X136779000Y-65815000D01*
X136779000Y-65795000D01*
X137033000Y-65795000D01*
X137033000Y-65815000D01*
X138292250Y-65815000D01*
X138384836Y-65722414D01*
X140059470Y-67397049D01*
X140087183Y-67430817D01*
X140120951Y-67458530D01*
X140120953Y-67458532D01*
X140175580Y-67503363D01*
X140221941Y-67541411D01*
X140375687Y-67623589D01*
X140542510Y-67674195D01*
X140672523Y-67687000D01*
X140672533Y-67687000D01*
X140715999Y-67691281D01*
X140759466Y-67687000D01*
X146445422Y-67687000D01*
X146649079Y-67890657D01*
X146643388Y-67909418D01*
X146631128Y-68033900D01*
X146631128Y-69634100D01*
X146643388Y-69758582D01*
X146679698Y-69878280D01*
X146738663Y-69988594D01*
X146818000Y-70085267D01*
X146818001Y-70376733D01*
X146738663Y-70473406D01*
X146679698Y-70583720D01*
X146643388Y-70703418D01*
X146631128Y-70827900D01*
X146631128Y-72428100D01*
X146643388Y-72552582D01*
X146679698Y-72672280D01*
X146738663Y-72782594D01*
X146818015Y-72879285D01*
X146914706Y-72958637D01*
X147025020Y-73017602D01*
X147144718Y-73053912D01*
X147269200Y-73066172D01*
X147363632Y-73066172D01*
X147361412Y-73073490D01*
X147344989Y-73240237D01*
X147344989Y-73859740D01*
X147344990Y-73859750D01*
X147344990Y-74331359D01*
X147300000Y-74326928D01*
X146335750Y-74330000D01*
X146177000Y-74488750D01*
X146177000Y-75438000D01*
X146197000Y-75438000D01*
X146197000Y-75692000D01*
X146177000Y-75692000D01*
X146177000Y-76641250D01*
X146335750Y-76800000D01*
X147300000Y-76803072D01*
X147344990Y-76798641D01*
X147344990Y-76831359D01*
X147300000Y-76826928D01*
X144800000Y-76826928D01*
X144675518Y-76839188D01*
X144555820Y-76875498D01*
X144453856Y-76930000D01*
X144008072Y-76930000D01*
X144008072Y-76165000D01*
X144161928Y-76165000D01*
X144174188Y-76289482D01*
X144210498Y-76409180D01*
X144269463Y-76519494D01*
X144348815Y-76616185D01*
X144445506Y-76695537D01*
X144555820Y-76754502D01*
X144675518Y-76790812D01*
X144800000Y-76803072D01*
X145764250Y-76800000D01*
X145923000Y-76641250D01*
X145923000Y-75692000D01*
X144323750Y-75692000D01*
X144165000Y-75850750D01*
X144161928Y-76165000D01*
X144008072Y-76165000D01*
X144008072Y-75070000D01*
X143997731Y-74965000D01*
X144161928Y-74965000D01*
X144165000Y-75279250D01*
X144323750Y-75438000D01*
X145923000Y-75438000D01*
X145923000Y-74488750D01*
X145764250Y-74330000D01*
X144800000Y-74326928D01*
X144675518Y-74339188D01*
X144555820Y-74375498D01*
X144445506Y-74434463D01*
X144348815Y-74513815D01*
X144269463Y-74610506D01*
X144210498Y-74720820D01*
X144174188Y-74840518D01*
X144161928Y-74965000D01*
X143997731Y-74965000D01*
X143995812Y-74945518D01*
X143959502Y-74825820D01*
X143900537Y-74715506D01*
X143821185Y-74618815D01*
X143724494Y-74539463D01*
X143614180Y-74480498D01*
X143494482Y-74444188D01*
X143370000Y-74431928D01*
X141470000Y-74431928D01*
X141470000Y-74350751D01*
X141475491Y-74294999D01*
X141453577Y-74072501D01*
X141388676Y-73858553D01*
X141359511Y-73803989D01*
X141283284Y-73661377D01*
X141141449Y-73488551D01*
X141098141Y-73453009D01*
X138001996Y-70356865D01*
X137966449Y-70313551D01*
X137793623Y-70171716D01*
X137596447Y-70066324D01*
X137382499Y-70001423D01*
X137215752Y-69985000D01*
X137215751Y-69985000D01*
X137160000Y-69979509D01*
X137104249Y-69985000D01*
X118680751Y-69985000D01*
X118624999Y-69979509D01*
X118402501Y-70001423D01*
X118188553Y-70066324D01*
X117991377Y-70171716D01*
X117818551Y-70313551D01*
X117783009Y-70356859D01*
X114911860Y-73228009D01*
X114868552Y-73263551D01*
X114726717Y-73436377D01*
X114698830Y-73488551D01*
X114621324Y-73633554D01*
X114556423Y-73847502D01*
X114534509Y-74070000D01*
X114540001Y-74125761D01*
X114540001Y-74431928D01*
X112640000Y-74431928D01*
X112515518Y-74444188D01*
X112395820Y-74480498D01*
X112285506Y-74539463D01*
X112188815Y-74618815D01*
X112109463Y-74715506D01*
X112050498Y-74825820D01*
X112014188Y-74945518D01*
X112001928Y-75070000D01*
X103530000Y-75070000D01*
X103530000Y-56769000D01*
X153010000Y-56769000D01*
X153010001Y-74365130D01*
G36*
X134767000Y-64806529D02*
G01*
X134473000Y-64806529D01*
X134473000Y-64733471D01*
X134767000Y-64733471D01*
X134767000Y-64806529D01*
X134767000Y-64806529D01*
G37*
X134767000Y-64806529D02*
X134473000Y-64806529D01*
X134473000Y-64733471D01*
X134767000Y-64733471D01*
X134767000Y-64806529D01*
G36*
X133652218Y-41312088D02*
G01*
X133532520Y-41348398D01*
X133422206Y-41407363D01*
X133325515Y-41486715D01*
X133246163Y-41583406D01*
X133187198Y-41693720D01*
X133150888Y-41813418D01*
X133138628Y-41937900D01*
X133141700Y-42348150D01*
X133300450Y-42506900D01*
X134345700Y-42506900D01*
X134345700Y-41461650D01*
X134186950Y-41302900D01*
X133799670Y-41300000D01*
X135145730Y-41300000D01*
X134758450Y-41302900D01*
X134599700Y-41461650D01*
X134599700Y-42506900D01*
X135644950Y-42506900D01*
X135803700Y-42348150D01*
X135806772Y-41937900D01*
X135794512Y-41813418D01*
X135758202Y-41693720D01*
X135699237Y-41583406D01*
X135619885Y-41486715D01*
X135523194Y-41407363D01*
X135412880Y-41348398D01*
X135293182Y-41312088D01*
X135170446Y-41300000D01*
X146685000Y-41300000D01*
X146685000Y-46863000D01*
X109855000Y-46863000D01*
X109855000Y-46172160D01*
X120565608Y-46172160D01*
X120577868Y-46296642D01*
X120614178Y-46416340D01*
X120673143Y-46526654D01*
X120752495Y-46623345D01*
X120849186Y-46702697D01*
X120959500Y-46761662D01*
X121079198Y-46797972D01*
X121203680Y-46810232D01*
X121613930Y-46807160D01*
X121772680Y-46648410D01*
X121772680Y-45603160D01*
X122026680Y-45603160D01*
X122026680Y-46648410D01*
X122185430Y-46807160D01*
X122595680Y-46810232D01*
X122720162Y-46797972D01*
X122839860Y-46761662D01*
X122950174Y-46702697D01*
X123046865Y-46623345D01*
X123126217Y-46526654D01*
X123185182Y-46416340D01*
X123221492Y-46296642D01*
X123233752Y-46172160D01*
X123230680Y-45761910D01*
X123071930Y-45603160D01*
X122026680Y-45603160D01*
X121772680Y-45603160D01*
X120727430Y-45603160D01*
X120568680Y-45761910D01*
X120565608Y-46172160D01*
X109855000Y-46172160D01*
X109855000Y-44298816D01*
X112765000Y-44298816D01*
X112765000Y-44601184D01*
X112823989Y-44897743D01*
X112939701Y-45177095D01*
X113107688Y-45428505D01*
X113321495Y-45642312D01*
X113572905Y-45810299D01*
X113852257Y-45926011D01*
X114148816Y-45985000D01*
X114451184Y-45985000D01*
X114747743Y-45926011D01*
X115027095Y-45810299D01*
X115278505Y-45642312D01*
X115344944Y-45575873D01*
X115350498Y-45594180D01*
X115409463Y-45704494D01*
X115488815Y-45801185D01*
X115585506Y-45880537D01*
X115695820Y-45939502D01*
X115815518Y-45975812D01*
X115940000Y-45988072D01*
X117740000Y-45988072D01*
X117864482Y-45975812D01*
X117984180Y-45939502D01*
X118094494Y-45880537D01*
X118191185Y-45801185D01*
X118270537Y-45704494D01*
X118329502Y-45594180D01*
X118365812Y-45474482D01*
X118378072Y-45350000D01*
X118378072Y-44780160D01*
X120565608Y-44780160D01*
X120568680Y-45190410D01*
X120727430Y-45349160D01*
X121772680Y-45349160D01*
X121772680Y-44303910D01*
X122026680Y-44303910D01*
X122026680Y-45349160D01*
X123071930Y-45349160D01*
X123076022Y-45345068D01*
X133141680Y-45345068D01*
X133141680Y-45607252D01*
X133192830Y-45864398D01*
X133293163Y-46106625D01*
X133438825Y-46324623D01*
X133624217Y-46510015D01*
X133842215Y-46655677D01*
X133845850Y-46657183D01*
X133859377Y-46668284D01*
X134056553Y-46773676D01*
X134270501Y-46838577D01*
X134437248Y-46855000D01*
X138374249Y-46855000D01*
X138430000Y-46860491D01*
X138485751Y-46855000D01*
X138485752Y-46855000D01*
X138652499Y-46838577D01*
X138866447Y-46773676D01*
X139063623Y-46668284D01*
X139236449Y-46526449D01*
X139271996Y-46483135D01*
X139770131Y-45985000D01*
X139851184Y-45985000D01*
X140147743Y-45926011D01*
X140427095Y-45810299D01*
X140678505Y-45642312D01*
X140744944Y-45575873D01*
X140750498Y-45594180D01*
X140809463Y-45704494D01*
X140888815Y-45801185D01*
X140985506Y-45880537D01*
X141095820Y-45939502D01*
X141215518Y-45975812D01*
X141340000Y-45988072D01*
X143140000Y-45988072D01*
X143264482Y-45975812D01*
X143384180Y-45939502D01*
X143494494Y-45880537D01*
X143591185Y-45801185D01*
X143670537Y-45704494D01*
X143729502Y-45594180D01*
X143765812Y-45474482D01*
X143778072Y-45350000D01*
X143778072Y-43550000D01*
X143765812Y-43425518D01*
X143729502Y-43305820D01*
X143670537Y-43195506D01*
X143591185Y-43098815D01*
X143494494Y-43019463D01*
X143384180Y-42960498D01*
X143264482Y-42924188D01*
X143140000Y-42911928D01*
X141340000Y-42911928D01*
X141215518Y-42924188D01*
X141095820Y-42960498D01*
X140985506Y-43019463D01*
X140888815Y-43098815D01*
X140809463Y-43195506D01*
X140750498Y-43305820D01*
X140744944Y-43324127D01*
X140678505Y-43257688D01*
X140427095Y-43089701D01*
X140147743Y-42973989D01*
X139851184Y-42915000D01*
X139548816Y-42915000D01*
X139252257Y-42973989D01*
X138972905Y-43089701D01*
X138721495Y-43257688D01*
X138507688Y-43471495D01*
X138339701Y-43722905D01*
X138223989Y-44002257D01*
X138165000Y-44298816D01*
X138165000Y-44379869D01*
X137959869Y-44585000D01*
X135463838Y-44585000D01*
X135321143Y-44442305D01*
X135103145Y-44296643D01*
X134860918Y-44196310D01*
X134603772Y-44145160D01*
X134341588Y-44145160D01*
X134084442Y-44196310D01*
X133842215Y-44296643D01*
X133624217Y-44442305D01*
X133438825Y-44627697D01*
X133293163Y-44845695D01*
X133192830Y-45087922D01*
X133141680Y-45345068D01*
X123076022Y-45345068D01*
X123230680Y-45190410D01*
X123233752Y-44780160D01*
X123221492Y-44655678D01*
X123185182Y-44535980D01*
X123126217Y-44425666D01*
X123046865Y-44328975D01*
X122950174Y-44249623D01*
X122839860Y-44190658D01*
X122720162Y-44154348D01*
X122595680Y-44142088D01*
X122185430Y-44145160D01*
X122026680Y-44303910D01*
X121772680Y-44303910D01*
X121613930Y-44145160D01*
X121203680Y-44142088D01*
X121079198Y-44154348D01*
X120959500Y-44190658D01*
X120849186Y-44249623D01*
X120752495Y-44328975D01*
X120673143Y-44425666D01*
X120614178Y-44535980D01*
X120577868Y-44655678D01*
X120565608Y-44780160D01*
X118378072Y-44780160D01*
X118378072Y-43680000D01*
X121102563Y-43680000D01*
X121302235Y-43813417D01*
X121544462Y-43913750D01*
X121801608Y-43964900D01*
X122063792Y-43964900D01*
X122320938Y-43913750D01*
X122563165Y-43813417D01*
X122781163Y-43667755D01*
X122966555Y-43482363D01*
X123068427Y-43329900D01*
X133138628Y-43329900D01*
X133150888Y-43454382D01*
X133187198Y-43574080D01*
X133246163Y-43684394D01*
X133325515Y-43781085D01*
X133422206Y-43860437D01*
X133532520Y-43919402D01*
X133652218Y-43955712D01*
X133776700Y-43967972D01*
X134186950Y-43964900D01*
X134345700Y-43806150D01*
X134345700Y-42760900D01*
X134599700Y-42760900D01*
X134599700Y-43806150D01*
X134758450Y-43964900D01*
X135168700Y-43967972D01*
X135293182Y-43955712D01*
X135412880Y-43919402D01*
X135523194Y-43860437D01*
X135619885Y-43781085D01*
X135699237Y-43684394D01*
X135758202Y-43574080D01*
X135794512Y-43454382D01*
X135806772Y-43329900D01*
X135803700Y-42919650D01*
X135644950Y-42760900D01*
X134599700Y-42760900D01*
X134345700Y-42760900D01*
X133300450Y-42760900D01*
X133141700Y-42919650D01*
X133138628Y-43329900D01*
X123068427Y-43329900D01*
X123112217Y-43264365D01*
X123212550Y-43022138D01*
X123263700Y-42764992D01*
X123263700Y-42502808D01*
X123212550Y-42245662D01*
X123112217Y-42003435D01*
X122966555Y-41785437D01*
X122781163Y-41600045D01*
X122563165Y-41454383D01*
X122320938Y-41354050D01*
X122063792Y-41302900D01*
X121801608Y-41302900D01*
X121544462Y-41354050D01*
X121409386Y-41410000D01*
X114990752Y-41410000D01*
X114935000Y-41404509D01*
X114879248Y-41410000D01*
X114712501Y-41426423D01*
X114498553Y-41491324D01*
X114301377Y-41596716D01*
X114128551Y-41738551D01*
X114093008Y-41781860D01*
X113536860Y-42338009D01*
X113493552Y-42373551D01*
X113351717Y-42546377D01*
X113246324Y-42743553D01*
X113181423Y-42957501D01*
X113181423Y-42957502D01*
X113159509Y-43180000D01*
X113165000Y-43235751D01*
X113165000Y-43414183D01*
X113107688Y-43471495D01*
X112939701Y-43722905D01*
X112823989Y-44002257D01*
X112765000Y-44298816D01*
X109855000Y-44298816D01*
X109855000Y-41300000D01*
X133774954Y-41300000D01*
X133652218Y-41312088D01*
X133652218Y-41312088D01*
G37*
X133652218Y-41312088D02*
X133532520Y-41348398D01*
X133422206Y-41407363D01*
X133325515Y-41486715D01*
X133246163Y-41583406D01*
X133187198Y-41693720D01*
X133150888Y-41813418D01*
X133138628Y-41937900D01*
X133141700Y-42348150D01*
X133300450Y-42506900D01*
X134345700Y-42506900D01*
X134345700Y-41461650D01*
X134186950Y-41302900D01*
X133799670Y-41300000D01*
X135145730Y-41300000D01*
X134758450Y-41302900D01*
X134599700Y-41461650D01*
X134599700Y-42506900D01*
X135644950Y-42506900D01*
X135803700Y-42348150D01*
X135806772Y-41937900D01*
X135794512Y-41813418D01*
X135758202Y-41693720D01*
X135699237Y-41583406D01*
X135619885Y-41486715D01*
X135523194Y-41407363D01*
X135412880Y-41348398D01*
X135293182Y-41312088D01*
X135170446Y-41300000D01*
X146685000Y-41300000D01*
X146685000Y-46863000D01*
X109855000Y-46863000D01*
X109855000Y-46172160D01*
X120565608Y-46172160D01*
X120577868Y-46296642D01*
X120614178Y-46416340D01*
X120673143Y-46526654D01*
X120752495Y-46623345D01*
X120849186Y-46702697D01*
X120959500Y-46761662D01*
X121079198Y-46797972D01*
X121203680Y-46810232D01*
X121613930Y-46807160D01*
X121772680Y-46648410D01*
X121772680Y-45603160D01*
X122026680Y-45603160D01*
X122026680Y-46648410D01*
X122185430Y-46807160D01*
X122595680Y-46810232D01*
X122720162Y-46797972D01*
X122839860Y-46761662D01*
X122950174Y-46702697D01*
X123046865Y-46623345D01*
X123126217Y-46526654D01*
X123185182Y-46416340D01*
X123221492Y-46296642D01*
X123233752Y-46172160D01*
X123230680Y-45761910D01*
X123071930Y-45603160D01*
X122026680Y-45603160D01*
X121772680Y-45603160D01*
X120727430Y-45603160D01*
X120568680Y-45761910D01*
X120565608Y-46172160D01*
X109855000Y-46172160D01*
X109855000Y-44298816D01*
X112765000Y-44298816D01*
X112765000Y-44601184D01*
X112823989Y-44897743D01*
X112939701Y-45177095D01*
X113107688Y-45428505D01*
X113321495Y-45642312D01*
X113572905Y-45810299D01*
X113852257Y-45926011D01*
X114148816Y-45985000D01*
X114451184Y-45985000D01*
X114747743Y-45926011D01*
X115027095Y-45810299D01*
X115278505Y-45642312D01*
X115344944Y-45575873D01*
X115350498Y-45594180D01*
X115409463Y-45704494D01*
X115488815Y-45801185D01*
X115585506Y-45880537D01*
X115695820Y-45939502D01*
X115815518Y-45975812D01*
X115940000Y-45988072D01*
X117740000Y-45988072D01*
X117864482Y-45975812D01*
X117984180Y-45939502D01*
X118094494Y-45880537D01*
X118191185Y-45801185D01*
X118270537Y-45704494D01*
X118329502Y-45594180D01*
X118365812Y-45474482D01*
X118378072Y-45350000D01*
X118378072Y-44780160D01*
X120565608Y-44780160D01*
X120568680Y-45190410D01*
X120727430Y-45349160D01*
X121772680Y-45349160D01*
X121772680Y-44303910D01*
X122026680Y-44303910D01*
X122026680Y-45349160D01*
X123071930Y-45349160D01*
X123076022Y-45345068D01*
X133141680Y-45345068D01*
X133141680Y-45607252D01*
X133192830Y-45864398D01*
X133293163Y-46106625D01*
X133438825Y-46324623D01*
X133624217Y-46510015D01*
X133842215Y-46655677D01*
X133845850Y-46657183D01*
X133859377Y-46668284D01*
X134056553Y-46773676D01*
X134270501Y-46838577D01*
X134437248Y-46855000D01*
X138374249Y-46855000D01*
X138430000Y-46860491D01*
X138485751Y-46855000D01*
X138485752Y-46855000D01*
X138652499Y-46838577D01*
X138866447Y-46773676D01*
X139063623Y-46668284D01*
X139236449Y-46526449D01*
X139271996Y-46483135D01*
X139770131Y-45985000D01*
X139851184Y-45985000D01*
X140147743Y-45926011D01*
X140427095Y-45810299D01*
X140678505Y-45642312D01*
X140744944Y-45575873D01*
X140750498Y-45594180D01*
X140809463Y-45704494D01*
X140888815Y-45801185D01*
X140985506Y-45880537D01*
X141095820Y-45939502D01*
X141215518Y-45975812D01*
X141340000Y-45988072D01*
X143140000Y-45988072D01*
X143264482Y-45975812D01*
X143384180Y-45939502D01*
X143494494Y-45880537D01*
X143591185Y-45801185D01*
X143670537Y-45704494D01*
X143729502Y-45594180D01*
X143765812Y-45474482D01*
X143778072Y-45350000D01*
X143778072Y-43550000D01*
X143765812Y-43425518D01*
X143729502Y-43305820D01*
X143670537Y-43195506D01*
X143591185Y-43098815D01*
X143494494Y-43019463D01*
X143384180Y-42960498D01*
X143264482Y-42924188D01*
X143140000Y-42911928D01*
X141340000Y-42911928D01*
X141215518Y-42924188D01*
X141095820Y-42960498D01*
X140985506Y-43019463D01*
X140888815Y-43098815D01*
X140809463Y-43195506D01*
X140750498Y-43305820D01*
X140744944Y-43324127D01*
X140678505Y-43257688D01*
X140427095Y-43089701D01*
X140147743Y-42973989D01*
X139851184Y-42915000D01*
X139548816Y-42915000D01*
X139252257Y-42973989D01*
X138972905Y-43089701D01*
X138721495Y-43257688D01*
X138507688Y-43471495D01*
X138339701Y-43722905D01*
X138223989Y-44002257D01*
X138165000Y-44298816D01*
X138165000Y-44379869D01*
X137959869Y-44585000D01*
X135463838Y-44585000D01*
X135321143Y-44442305D01*
X135103145Y-44296643D01*
X134860918Y-44196310D01*
X134603772Y-44145160D01*
X134341588Y-44145160D01*
X134084442Y-44196310D01*
X133842215Y-44296643D01*
X133624217Y-44442305D01*
X133438825Y-44627697D01*
X133293163Y-44845695D01*
X133192830Y-45087922D01*
X133141680Y-45345068D01*
X123076022Y-45345068D01*
X123230680Y-45190410D01*
X123233752Y-44780160D01*
X123221492Y-44655678D01*
X123185182Y-44535980D01*
X123126217Y-44425666D01*
X123046865Y-44328975D01*
X122950174Y-44249623D01*
X122839860Y-44190658D01*
X122720162Y-44154348D01*
X122595680Y-44142088D01*
X122185430Y-44145160D01*
X122026680Y-44303910D01*
X121772680Y-44303910D01*
X121613930Y-44145160D01*
X121203680Y-44142088D01*
X121079198Y-44154348D01*
X120959500Y-44190658D01*
X120849186Y-44249623D01*
X120752495Y-44328975D01*
X120673143Y-44425666D01*
X120614178Y-44535980D01*
X120577868Y-44655678D01*
X120565608Y-44780160D01*
X118378072Y-44780160D01*
X118378072Y-43680000D01*
X121102563Y-43680000D01*
X121302235Y-43813417D01*
X121544462Y-43913750D01*
X121801608Y-43964900D01*
X122063792Y-43964900D01*
X122320938Y-43913750D01*
X122563165Y-43813417D01*
X122781163Y-43667755D01*
X122966555Y-43482363D01*
X123068427Y-43329900D01*
X133138628Y-43329900D01*
X133150888Y-43454382D01*
X133187198Y-43574080D01*
X133246163Y-43684394D01*
X133325515Y-43781085D01*
X133422206Y-43860437D01*
X133532520Y-43919402D01*
X133652218Y-43955712D01*
X133776700Y-43967972D01*
X134186950Y-43964900D01*
X134345700Y-43806150D01*
X134345700Y-42760900D01*
X134599700Y-42760900D01*
X134599700Y-43806150D01*
X134758450Y-43964900D01*
X135168700Y-43967972D01*
X135293182Y-43955712D01*
X135412880Y-43919402D01*
X135523194Y-43860437D01*
X135619885Y-43781085D01*
X135699237Y-43684394D01*
X135758202Y-43574080D01*
X135794512Y-43454382D01*
X135806772Y-43329900D01*
X135803700Y-42919650D01*
X135644950Y-42760900D01*
X134599700Y-42760900D01*
X134345700Y-42760900D01*
X133300450Y-42760900D01*
X133141700Y-42919650D01*
X133138628Y-43329900D01*
X123068427Y-43329900D01*
X123112217Y-43264365D01*
X123212550Y-43022138D01*
X123263700Y-42764992D01*
X123263700Y-42502808D01*
X123212550Y-42245662D01*
X123112217Y-42003435D01*
X122966555Y-41785437D01*
X122781163Y-41600045D01*
X122563165Y-41454383D01*
X122320938Y-41354050D01*
X122063792Y-41302900D01*
X121801608Y-41302900D01*
X121544462Y-41354050D01*
X121409386Y-41410000D01*
X114990752Y-41410000D01*
X114935000Y-41404509D01*
X114879248Y-41410000D01*
X114712501Y-41426423D01*
X114498553Y-41491324D01*
X114301377Y-41596716D01*
X114128551Y-41738551D01*
X114093008Y-41781860D01*
X113536860Y-42338009D01*
X113493552Y-42373551D01*
X113351717Y-42546377D01*
X113246324Y-42743553D01*
X113181423Y-42957501D01*
X113181423Y-42957502D01*
X113159509Y-43180000D01*
X113165000Y-43235751D01*
X113165000Y-43414183D01*
X113107688Y-43471495D01*
X112939701Y-43722905D01*
X112823989Y-44002257D01*
X112765000Y-44298816D01*
X109855000Y-44298816D01*
X109855000Y-41300000D01*
X133774954Y-41300000D01*
X133652218Y-41312088D01*
G36*
X153010000Y-56261000D02*
G01*
X103530000Y-56261000D01*
X103530000Y-47371000D01*
X153010000Y-47371000D01*
X153010000Y-56261000D01*
X153010000Y-56261000D01*
G37*
X153010000Y-56261000D02*
X103530000Y-56261000D01*
X103530000Y-47371000D01*
X153010000Y-47371000D01*
X153010000Y-56261000D01*
G36*
X103647799Y-45680979D02*
G01*
X103990886Y-46194446D01*
X104427554Y-46631114D01*
X104774597Y-46863000D01*
X103530000Y-46863000D01*
X103530000Y-45396588D01*
X103647799Y-45680979D01*
X103647799Y-45680979D01*
G37*
X103647799Y-45680979D02*
X103990886Y-46194446D01*
X104427554Y-46631114D01*
X104774597Y-46863000D01*
X103530000Y-46863000D01*
X103530000Y-45396588D01*
X103647799Y-45680979D01*
G36*
X109347000Y-46863000D02*
G01*
X108077403Y-46863000D01*
X108424446Y-46631114D01*
X108861114Y-46194446D01*
X109204201Y-45680979D01*
X109347000Y-45336232D01*
X109347000Y-46863000D01*
X109347000Y-46863000D01*
G37*
X109347000Y-46863000D02*
X108077403Y-46863000D01*
X108424446Y-46631114D01*
X108861114Y-46194446D01*
X109204201Y-45680979D01*
X109347000Y-45336232D01*
X109347000Y-46863000D01*
G36*
X109347000Y-43055768D02*
G01*
X109204201Y-42711021D01*
X108861114Y-42197554D01*
X108424446Y-41760886D01*
X107910979Y-41417799D01*
X107626588Y-41300000D01*
X109347000Y-41300000D01*
X109347000Y-43055768D01*
X109347000Y-43055768D01*
G37*
X109347000Y-43055768D02*
X109204201Y-42711021D01*
X108861114Y-42197554D01*
X108424446Y-41760886D01*
X107910979Y-41417799D01*
X107626588Y-41300000D01*
X109347000Y-41300000D01*
X109347000Y-43055768D01*
G36*
X104941021Y-41417799D02*
G01*
X104427554Y-41760886D01*
X103990886Y-42197554D01*
X103647799Y-42711021D01*
X103557859Y-42928156D01*
X103568909Y-42815455D01*
X103674780Y-42464792D01*
X103846744Y-42141375D01*
X104078254Y-41857516D01*
X104360486Y-41624035D01*
X104682695Y-41449817D01*
X105032614Y-41341498D01*
X105156718Y-41328454D01*
X104941021Y-41417799D01*
X104941021Y-41417799D01*
G37*
X104941021Y-41417799D02*
X104427554Y-41760886D01*
X103990886Y-42197554D01*
X103647799Y-42711021D01*
X103557859Y-42928156D01*
X103568909Y-42815455D01*
X103674780Y-42464792D01*
X103846744Y-42141375D01*
X104078254Y-41857516D01*
X104360486Y-41624035D01*
X104682695Y-41449817D01*
X105032614Y-41341498D01*
X105156718Y-41328454D01*
X104941021Y-41417799D01*
G36*
X147335799Y-45680979D02*
G01*
X147678886Y-46194446D01*
X148115554Y-46631114D01*
X148462597Y-46863000D01*
X147193000Y-46863000D01*
X147193000Y-45336232D01*
X147335799Y-45680979D01*
X147335799Y-45680979D01*
G37*
X147335799Y-45680979D02*
X147678886Y-46194446D01*
X148115554Y-46631114D01*
X148462597Y-46863000D01*
X147193000Y-46863000D01*
X147193000Y-45336232D01*
X147335799Y-45680979D01*
G36*
X153010000Y-46863000D02*
G01*
X151765403Y-46863000D01*
X152112446Y-46631114D01*
X152549114Y-46194446D01*
X152892201Y-45680979D01*
X153010000Y-45396588D01*
X153010000Y-46863000D01*
X153010000Y-46863000D01*
G37*
X153010000Y-46863000D02*
X151765403Y-46863000D01*
X152112446Y-46631114D01*
X152549114Y-46194446D01*
X152892201Y-45680979D01*
X153010000Y-45396588D01*
X153010000Y-46863000D01*
G36*
X148629021Y-41417799D02*
G01*
X148115554Y-41760886D01*
X147678886Y-42197554D01*
X147335799Y-42711021D01*
X147193000Y-43055768D01*
X147193000Y-41300000D01*
X148913412Y-41300000D01*
X148629021Y-41417799D01*
X148629021Y-41417799D01*
G37*
X148629021Y-41417799D02*
X148115554Y-41760886D01*
X147678886Y-42197554D01*
X147335799Y-42711021D01*
X147193000Y-43055768D01*
X147193000Y-41300000D01*
X148913412Y-41300000D01*
X148629021Y-41417799D01*
G36*
X151494545Y-41338909D02*
G01*
X151845208Y-41444780D01*
X152168625Y-41616744D01*
X152452484Y-41848254D01*
X152685965Y-42130486D01*
X152860183Y-42452695D01*
X152968502Y-42802614D01*
X152981546Y-42926718D01*
X152892201Y-42711021D01*
X152549114Y-42197554D01*
X152112446Y-41760886D01*
X151598979Y-41417799D01*
X151381844Y-41327859D01*
X151494545Y-41338909D01*
X151494545Y-41338909D01*
G37*
X151494545Y-41338909D02*
X151845208Y-41444780D01*
X152168625Y-41616744D01*
X152452484Y-41848254D01*
X152685965Y-42130486D01*
X152860183Y-42452695D01*
X152968502Y-42802614D01*
X152981546Y-42926718D01*
X152892201Y-42711021D01*
X152549114Y-42197554D01*
X152112446Y-41760886D01*
X151598979Y-41417799D01*
X151381844Y-41327859D01*
X151494545Y-41338909D01*
M02*
